# White-box proxy for ALCC2ProxyMesh, built from LCC Studio Space Recognition output.
# Y is pre-negated: Unreal's OBJ import negates Y again, landing this in the LCC frame.
# Place at the splat transform with POSITIVE uniform scale 100.
v -9.78904 0.96195 -0.25000
v -7.45974 1.11437 -0.25000
v -7.45974 1.11437 1.87110
v -9.78904 0.96195 1.87110
v -9.78904 0.96195 -0.25000
v -9.54962 -2.69711 -0.25000
v -9.54962 -2.69711 1.87110
v -9.78904 0.96195 1.87110
v -9.54962 -2.69711 -0.25000
v -9.01767 -2.66230 -0.25000
v -9.01767 -2.66230 1.87110
v -9.54962 -2.69711 1.87110
v -9.47783 -3.78541 -0.25000
v -9.43520 -4.43679 -0.25000
v -9.43520 -4.43679 1.87110
v -9.47783 -3.78541 1.87110
v -9.43520 -4.43679 -0.25000
v -8.32258 -4.36398 -0.25000
v -8.32258 -4.36398 1.87110
v -9.43520 -4.43679 1.87110
v -8.32258 -4.36398 -0.25000
v -5.62834 -4.18769 -0.25000
v -5.62834 -4.18769 0.32610
v -8.32258 -4.36398 0.32610
v -8.32258 -4.36398 1.83610
v -5.62834 -4.18769 1.83610
v -5.62834 -4.18769 1.87110
v -8.32258 -4.36398 1.87110
v -5.62834 -4.18769 -0.25000
v -4.58575 -4.11947 -0.25000
v -4.58575 -4.11947 1.87110
v -5.62834 -4.18769 1.87110
v -9.37024 4.46009 -0.25000
v -9.36953 4.44931 -0.25000
v -9.36953 4.44931 1.87110
v -9.37024 4.46009 1.87110
v -9.36766 4.42074 -0.25000
v -7.82354 4.52178 -0.25000
v -7.82354 4.52178 1.87110
v -9.36766 4.42074 1.87110
v -9.01767 -2.66230 -0.25000
v -8.94646 -3.75064 -0.25000
v -8.94646 -3.75064 1.87110
v -9.01767 -2.66230 1.87110
v -7.65133 5.00328 -0.25000
v -6.92605 5.05074 -0.25000
v -6.92605 5.05074 1.87110
v -7.65133 5.00328 1.87110
v -7.65133 5.00328 -0.25000
v -7.64118 4.84816 -0.25000
v -7.64118 4.84816 1.87110
v -7.65133 5.00328 1.87110
v -7.64118 4.84816 -0.25000
v -2.92609 5.15669 -0.25000
v -2.92609 5.15669 1.87110
v -7.64118 4.84816 1.87110
v -7.55591 2.58415 -0.25000
v -6.98079 2.62178 -0.25000
v -6.98079 2.62178 1.87110
v -7.55591 2.58415 1.87110
v -7.05959 3.82615 -0.25000
v -6.98079 2.62178 -0.25000
v -6.98079 2.62178 1.87110
v -7.05959 3.82615 1.87110
v -6.96495 5.64524 -0.25000
v -6.92645 5.05682 -0.25000
v -6.92645 5.05682 1.87110
v -6.96495 5.64524 1.87110
v -6.92645 5.05682 -0.25000
v -5.26618 5.16546 -0.25000
v -5.26618 5.16546 1.87110
v -6.92645 5.05682 1.87110
v -5.94679 1.91445 -0.25000
v -5.90780 1.31853 -0.25000
v -5.90780 1.31853 1.87110
v -5.94679 1.91445 1.87110
v -4.68945 -1.04107 -0.25000
v -3.90383 -0.98967 -0.25000
v -3.90383 -0.98967 1.87110
v -4.68945 -1.04107 1.87110
v -4.68945 -1.04107 -0.25000
v -4.55252 -3.13367 -0.25000
v -4.55252 -3.13367 1.87110
v -4.68945 -1.04107 1.87110
v -4.61097 -3.73401 -0.25000
v -4.48953 -3.72607 -0.25000
v -4.48953 -3.72607 1.87110
v -4.61097 -3.73401 1.87110
v -4.61097 -3.73401 -0.25000
v -4.58575 -4.11947 -0.25000
v -4.58575 -4.11947 1.87110
v -4.61097 -3.73401 1.87110
v -4.48953 -3.72607 -0.25000
v -4.46431 -4.11152 -0.25000
v -4.46431 -4.11152 1.87110
v -4.48953 -3.72607 1.87110
v -4.46431 -4.11152 -0.25000
v -2.69881 -3.99600 -0.25000
v -2.69881 -3.99600 1.87110
v -4.46431 -4.11152 1.87110
v -4.29490 1.50533 -0.25000
v -2.75186 1.60629 -0.25000
v -2.75186 1.60629 1.87110
v -4.29490 1.50533 1.87110
v -3.98522 0.25423 -0.25000
v -3.90383 -0.98967 -0.25000
v -3.90383 -0.98967 1.87110
v -3.98522 0.25423 1.87110
v -3.69696 3.99342 -0.25000
v -2.85358 4.04860 -0.25000
v -2.85358 4.04860 1.87110
v -3.69696 3.99342 1.87110
v -3.52316 2.07690 -0.25000
v -2.40863 2.14983 -0.25000
v -2.40863 2.14983 1.87110
v -3.52316 2.07690 1.87110
v -2.92609 5.15669 -0.25000
v -2.46940 5.18657 -0.25000
v -2.46940 5.18657 1.87110
v -2.92609 5.15669 1.87110
v -2.92609 5.15669 -0.25000
v -2.85358 4.04860 -0.25000
v -2.85358 4.04860 1.87110
v -2.92609 5.15669 1.87110
v -2.88378 0.08284 -0.25000
v -2.67980 -3.03462 -0.25000
v -2.67980 -3.03462 1.87110
v -2.88378 0.08284 1.87110
v -2.75186 1.60629 -0.25000
v -2.73583 1.36127 -0.25000
v -2.73583 1.36127 1.87110
v -2.75186 1.60629 1.87110
v -2.73583 1.36127 -0.25000
v -2.58116 1.37139 -0.25000
v -2.58116 1.37139 1.87110
v -2.73583 1.36127 1.87110
v -2.58116 1.37139 -0.25000
v -1.84274 1.41971 -0.25000
v -1.84274 1.41971 0.07610
v -2.58116 1.37139 0.07610
v -2.58116 1.37139 1.58610
v -1.84274 1.41971 1.58610
v -1.84274 1.41971 1.87110
v -2.58116 1.37139 1.87110
v -1.84274 1.41971 -0.25000
v -1.83860 1.41998 -0.25000
v -1.83860 1.41998 1.87110
v -1.84274 1.41971 1.87110
v -2.73583 1.36127 -0.25000
v -2.44918 -3.01953 -0.25000
v -2.44918 -3.01953 1.87110
v -2.73583 1.36127 1.87110
v -2.72679 -3.56840 -0.25000
v -2.69881 -3.99600 -0.25000
v -2.69881 -3.99600 1.87110
v -2.72679 -3.56840 1.87110
v -2.69881 -3.99600 -0.25000
v 1.66091 -3.71073 -0.25000
v 1.66091 -3.71073 1.87110
v -2.69881 -3.99600 1.87110
v -2.67980 -3.03462 -0.25000
v -2.44918 -3.01953 -0.25000
v -2.44918 -3.01953 1.87110
v -2.67980 -3.03462 1.87110
v -2.38313 1.76018 -0.25000
v -1.86722 1.79394 -0.25000
v -1.86722 1.79394 0.07610
v -2.38313 1.76018 0.07610
v -2.38313 1.76018 1.58610
v -1.86722 1.79394 1.58610
v -1.86722 1.79394 1.87110
v -2.38313 1.76018 1.87110
v -1.86722 1.79394 -0.25000
v -1.86309 1.79421 -0.25000
v -1.86309 1.79421 1.87110
v -1.86722 1.79394 1.87110
v -2.24828 9.89947 -0.25000
v -0.02193 10.04515 -0.25000
v -0.02193 10.04515 1.87110
v -2.24828 9.89947 1.87110
v -2.24828 9.89947 -0.25000
v -2.23097 9.63504 -0.25000
v -2.23097 9.63504 1.87110
v -2.24828 9.89947 1.87110
v -2.23097 9.63504 -0.25000
v -2.19702 9.11615 -0.25000
v -2.19702 9.11615 0.38610
v -2.23097 9.63504 0.38610
v -2.23097 9.63504 1.28610
v -2.19702 9.11615 1.28610
v -2.19702 9.11615 1.87110
v -2.23097 9.63504 1.87110
v -2.19702 9.11615 -0.25000
v -2.18407 8.91826 -0.25000
v -2.18407 8.91826 1.87110
v -2.19702 9.11615 1.87110
v -2.18407 8.91826 -0.25000
v -1.60215 8.95634 -0.25000
v -1.60215 8.95634 1.87110
v -2.18407 8.91826 1.87110
v -1.86309 1.79421 -0.25000
v -1.86276 1.78919 -0.25000
v -1.86276 1.78919 1.87110
v -1.86309 1.79421 1.87110
v -1.86276 1.78919 -0.25000
v -1.83860 1.41998 -0.25000
v -1.83860 1.41998 0.07610
v -1.86276 1.78919 0.07610
v -1.86276 1.78919 1.58610
v -1.83860 1.41998 1.58610
v -1.83860 1.41998 1.87110
v -1.86276 1.78919 1.87110
v -0.22109 9.59416 -0.25000
v 0.00661 9.60906 -0.25000
v 0.00661 9.60906 1.87110
v -0.22109 9.59416 1.87110
v -0.02193 10.04515 -0.25000
v 0.00661 9.60906 -0.25000
v 0.00661 9.60906 1.87110
v -0.02193 10.04515 1.87110
v 0.00661 9.60906 -0.25000
v 0.53030 9.64333 -0.25000
v 0.53030 9.64333 1.87110
v 0.00661 9.60906 1.87110
v 0.54700 -2.55650 -0.25000
v 1.58096 -2.48884 -0.25000
v 1.58096 -2.48884 1.87110
v 0.54700 -2.55650 1.87110
v 1.32453 1.43016 -0.25000
v 1.52982 -1.70727 -0.25000
v 1.52982 -1.70727 1.87110
v 1.32453 1.43016 1.87110
v 1.52982 -1.70727 -0.25000
v 1.73376 -1.69392 -0.25000
v 1.73376 -1.69392 1.87110
v 1.52982 -1.70727 1.87110
v 1.52982 -1.70727 -0.25000
v 1.58096 -2.48884 -0.25000
v 1.58096 -2.48884 1.87110
v 1.52982 -1.70727 1.87110
v 1.58096 -2.48884 -0.25000
v 1.66091 -3.71073 -0.25000
v 1.66091 -3.71073 1.87110
v 1.58096 -2.48884 1.87110
v 1.87267 10.93423 -0.25000
v 2.00228 8.95347 -0.25000
v 2.00228 8.95347 1.87110
v 1.87267 10.93423 1.87110
v 2.00228 8.95347 -0.25000
v 2.11328 7.25709 -0.25000
v 2.11328 7.25709 0.51610
v 2.00228 8.95347 0.51610
v 2.00228 8.95347 1.84610
v 2.11328 7.25709 1.84610
v 2.11328 7.25709 1.87110
v 2.00228 8.95347 1.87110
v 2.11328 7.25709 -0.25000
v 2.11932 7.16478 -0.25000
v 2.11932 7.16478 1.87110
v 2.11328 7.25709 1.87110
v -9.78904 10.93423 -0.25000
v 2.11932 10.93423 -0.25000
v 2.11932 -4.43679 -0.25000
v -9.78904 -4.43679 -0.25000
v -9.78904 -4.43679 1.87110
v 2.11932 -4.43679 1.87110
v 2.11932 10.93423 1.87110
v -9.78904 10.93423 1.87110
f 1 2 3
f 1 3 4
f 5 6 7
f 5 7 8
f 9 10 11
f 9 11 12
f 13 14 15
f 13 15 16
f 17 18 19
f 17 19 20
f 21 22 23
f 21 23 24
f 25 26 27
f 25 27 28
f 29 30 31
f 29 31 32
f 33 34 35
f 33 35 36
f 37 38 39
f 37 39 40
f 41 42 43
f 41 43 44
f 45 46 47
f 45 47 48
f 49 50 51
f 49 51 52
f 53 54 55
f 53 55 56
f 57 58 59
f 57 59 60
f 61 62 63
f 61 63 64
f 65 66 67
f 65 67 68
f 69 70 71
f 69 71 72
f 73 74 75
f 73 75 76
f 77 78 79
f 77 79 80
f 81 82 83
f 81 83 84
f 85 86 87
f 85 87 88
f 89 90 91
f 89 91 92
f 93 94 95
f 93 95 96
f 97 98 99
f 97 99 100
f 101 102 103
f 101 103 104
f 105 106 107
f 105 107 108
f 109 110 111
f 109 111 112
f 113 114 115
f 113 115 116
f 117 118 119
f 117 119 120
f 121 122 123
f 121 123 124
f 125 126 127
f 125 127 128
f 129 130 131
f 129 131 132
f 133 134 135
f 133 135 136
f 137 138 139
f 137 139 140
f 141 142 143
f 141 143 144
f 145 146 147
f 145 147 148
f 149 150 151
f 149 151 152
f 153 154 155
f 153 155 156
f 157 158 159
f 157 159 160
f 161 162 163
f 161 163 164
f 165 166 167
f 165 167 168
f 169 170 171
f 169 171 172
f 173 174 175
f 173 175 176
f 177 178 179
f 177 179 180
f 181 182 183
f 181 183 184
f 185 186 187
f 185 187 188
f 189 190 191
f 189 191 192
f 193 194 195
f 193 195 196
f 197 198 199
f 197 199 200
f 201 202 203
f 201 203 204
f 205 206 207
f 205 207 208
f 209 210 211
f 209 211 212
f 213 214 215
f 213 215 216
f 217 218 219
f 217 219 220
f 221 222 223
f 221 223 224
f 225 226 227
f 225 227 228
f 229 230 231
f 229 231 232
f 233 234 235
f 233 235 236
f 237 238 239
f 237 239 240
f 241 242 243
f 241 243 244
f 245 246 247
f 245 247 248
f 249 250 251
f 249 251 252
f 253 254 255
f 253 255 256
f 257 258 259
f 257 259 260
f 261 262 263
f 261 263 264
f 265 266 267
f 265 267 268
