# White-box proxy for ALCC2ProxyMesh, built from LCC Studio Space Recognition output.
# Y is pre-negated: Unreal's OBJ import negates Y again, landing this in the LCC frame.
# Place at the splat transform with POSITIVE uniform scale 100.
v -27.87378 20.65754 0.14960
v -27.78457 18.55199 0.14960
v -27.78457 18.55199 4.04240
v -27.87378 20.65754 4.04240
v -22.32742 37.11537 0.14960
v -20.41918 37.19621 0.14960
v -20.41918 37.19621 4.04240
v -22.32742 37.11537 4.04240
v -22.15346 37.25263 0.14960
v -20.42467 37.32587 0.14960
v -20.42467 37.32587 4.04240
v -22.15346 37.25263 4.04240
v -20.49767 39.04870 0.14960
v -20.42467 37.32587 0.14960
v -20.42467 37.32587 4.04240
v -20.49767 39.04870 4.04240
v -18.58885 11.54319 0.14960
v -18.56602 11.00429 0.14960
v -18.56602 11.00429 4.04240
v -18.58885 11.54319 4.04240
v -18.58885 11.54319 0.14960
v -16.78420 11.61965 0.14960
v -16.78420 11.61965 4.04240
v -18.58885 11.54319 4.04240
v -18.56602 11.00429 0.14960
v -18.39714 7.01828 0.14960
v -18.39714 7.01828 4.04240
v -18.56602 11.00429 4.04240
v -18.56602 11.00429 0.14960
v -14.44867 11.17873 0.14960
v -14.44867 11.17873 4.04240
v -18.56602 11.00429 4.04240
v -18.39714 7.01828 0.14960
v -17.38746 7.06106 0.14960
v -17.38746 7.06106 4.04240
v -18.39714 7.01828 4.04240
v -18.21960 18.70674 0.14960
v -18.06401 15.03448 0.14960
v -18.06401 15.03448 4.04240
v -18.21960 18.70674 4.04240
v -15.27172 13.31482 0.14960
v -12.89853 13.41537 0.14960
v -12.89853 13.41537 4.04240
v -15.27172 13.31482 4.04240
v -14.44867 11.17873 0.14960
v -14.33336 8.45718 0.14960
v -14.33336 8.45718 4.04240
v -14.44867 11.17873 4.04240
v -12.91261 13.74773 0.14960
v -12.89853 13.41537 0.14960
v -12.89853 13.41537 4.04240
v -12.91261 13.74773 4.04240
v -12.84846 63.84717 0.14960
v -12.35366 52.16865 0.14960
v -12.35366 52.16865 4.04240
v -12.84846 63.84717 4.04240
v -12.76642 13.67795 0.14960
v -11.32177 13.73916 0.14960
v -11.32177 13.73916 4.04240
v -12.76642 13.67795 4.04240
v -12.76642 13.67795 0.14960
v -12.75555 13.42143 0.14960
v -12.75555 13.42143 4.04240
v -12.76642 13.67795 4.04240
v -12.75599 13.43180 0.14960
v -10.85111 13.51250 0.14960
v -10.85111 13.51250 4.04240
v -12.75599 13.43180 4.04240
v -10.88821 14.38815 0.14960
v -10.85320 13.56173 0.14960
v -10.85320 13.56173 4.04240
v -10.88821 14.38815 4.04240
v -10.54975 13.64231 0.14960
v -3.00126 13.96213 0.14960
v -3.00126 13.96213 4.04240
v -10.54975 13.64231 4.04240
v -10.06807 70.14495 0.14960
v -9.75833 62.83446 0.14960
v -9.75833 62.83446 4.04240
v -10.06807 70.14495 4.04240
v -9.76878 11.28255 0.14960
v -8.95176 11.31716 0.14960
v -8.95176 11.31716 4.04240
v -9.76878 11.28255 4.04240
v -8.95176 11.31716 0.14960
v -7.58596 11.37503 0.14960
v -7.58596 11.37503 4.04240
v -8.95176 11.31716 4.04240
v -8.95176 11.31716 0.14960
v -8.90830 10.29125 0.14960
v -8.90830 10.29125 4.04240
v -8.95176 11.31716 4.04240
v -8.66354 10.30162 0.14960
v -8.62434 9.37626 0.14960
v -8.62434 9.37626 4.04240
v -8.66354 10.30162 4.04240
v -8.62434 9.37626 0.14960
v -7.50329 9.42376 0.14960
v -7.50329 9.42376 4.04240
v -8.62434 9.37626 4.04240
v -7.58596 11.37503 0.14960
v -7.50329 9.42376 0.14960
v -7.50329 9.42376 4.04240
v -7.58596 11.37503 4.04240
v -7.50038 69.96682 0.14960
v -4.24806 70.10461 0.14960
v -4.24806 70.10461 4.04240
v -7.50038 69.96682 4.04240
v -4.24806 70.10461 0.14960
v -3.96300 63.37639 0.14960
v -3.96300 63.37639 4.04240
v -4.24806 70.10461 4.04240
v -4.13991 11.63654 0.14960
v -2.90607 11.68882 0.14960
v -2.90607 11.68882 4.04240
v -4.13991 11.63654 4.04240
v -4.09332 68.40169 0.14960
v -4.00548 66.32844 0.14960
v -4.00548 66.32844 4.04240
v -4.09332 68.40169 4.04240
v -3.94173 11.49849 0.14960
v -3.86235 9.62479 0.14960
v -3.86235 9.62479 4.04240
v -3.94173 11.49849 4.04240
v -3.94171 11.49792 0.14960
v -2.66179 11.55214 0.14960
v -2.66179 11.55214 4.04240
v -3.94171 11.49792 4.04240
v -3.86235 9.62479 0.14960
v -2.58243 9.67902 0.14960
v -2.58243 9.67902 4.04240
v -3.86235 9.62479 4.04240
v -3.29439 20.88060 0.14960
v -3.27767 20.48595 0.14960
v -3.27767 20.48595 4.04240
v -3.29439 20.88060 4.04240
v -3.27767 20.48595 0.14960
v -3.25481 19.94644 0.14960
v -3.25481 19.94644 1.56740
v -3.27767 20.48595 1.56740
v -3.27767 20.48595 3.39740
v -3.25481 19.94644 3.39740
v -3.25481 19.94644 4.04240
v -3.27767 20.48595 4.04240
v -3.25481 19.94644 0.14960
v -3.16549 17.83833 0.14960
v -3.16549 17.83833 4.04240
v -3.25481 19.94644 4.04240
v -3.16549 17.83833 0.14960
v -3.10919 16.50952 0.14960
v -3.10919 16.50952 1.11740
v -3.16549 17.83833 1.11740
v -3.16549 17.83833 3.63740
v -3.10919 16.50952 3.63740
v -3.10919 16.50952 4.04240
v -3.16549 17.83833 4.04240
v -3.10919 16.50952 0.14960
v -3.00126 13.96213 0.14960
v -3.00126 13.96213 4.04240
v -3.10919 16.50952 4.04240
v -3.13598 20.88731 0.14960
v -2.17832 20.92789 0.14960
v -2.17832 20.92789 4.04240
v -3.13598 20.88731 4.04240
v -2.65121 11.55020 0.14960
v -2.57195 9.67947 0.14960
v -2.57195 9.67947 4.04240
v -2.65121 11.55020 4.04240
v -2.62772 11.55120 0.14960
v -1.93548 11.58053 0.14960
v -1.93548 11.58053 4.04240
v -2.62772 11.55120 4.04240
v -2.58792 10.61175 0.14960
v -1.89568 10.64107 0.14960
v -1.89568 10.64107 4.04240
v -2.58792 10.61175 4.04240
v -2.17832 20.92789 0.14960
v -2.15716 20.42836 0.14960
v -2.15716 20.42836 4.04240
v -2.17832 20.92789 4.04240
v -2.04810 20.57811 0.14960
v 0.28315 20.67688 0.14960
v 0.28315 20.67688 4.04240
v -2.04810 20.57811 4.04240
v -2.04196 20.43324 0.14960
v 0.28929 20.53201 0.14960
v 0.28929 20.53201 4.04240
v -2.04196 20.43324 4.04240
v -1.93548 11.58053 0.14960
v -1.89568 10.64107 0.14960
v -1.89568 10.64107 4.04240
v -1.93548 11.58053 4.04240
v -0.80299 15.18258 0.14960
v 0.06880 15.21951 0.14960
v 0.06880 15.21951 4.04240
v -0.80299 15.18258 4.04240
v -0.80299 15.18258 0.14960
v -0.75856 14.13397 0.14960
v -0.75856 14.13397 4.04240
v -0.80299 15.18258 4.04240
v -0.75856 14.13397 0.14960
v 0.11323 14.17091 0.14960
v 0.11323 14.17091 4.04240
v -0.75856 14.13397 4.04240
v -0.00703 27.52580 0.14960
v 2.71970 27.64133 0.14960
v 2.71970 27.64133 4.04240
v -0.00703 27.52580 4.04240
v -0.00703 27.52580 0.14960
v 0.28315 20.67688 0.14960
v 0.28315 20.67688 4.04240
v -0.00703 27.52580 4.04240
v 0.06880 15.21951 0.14960
v 0.11323 14.17091 0.14960
v 0.11323 14.17091 4.04240
v 0.06880 15.21951 4.04240
v 0.23676 10.83757 0.14960
v 2.41206 10.92973 0.14960
v 2.41206 10.92973 4.04240
v 0.23676 10.83757 4.04240
v 1.90314 20.67877 0.14960
v 3.04722 20.72724 0.14960
v 3.04722 20.72724 4.04240
v 1.90314 20.67877 4.04240
v 2.27448 15.29198 0.14960
v 3.23759 15.33278 0.14960
v 3.23759 15.33278 4.04240
v 2.27448 15.29198 4.04240
v 2.27448 15.29198 0.14960
v 2.32078 14.19919 0.14960
v 2.32078 14.19919 4.04240
v 2.27448 15.29198 4.04240
v 2.31245 37.25358 0.14960
v 2.45732 37.25972 0.14960
v 2.45732 37.25972 4.04240
v 2.31245 37.25358 4.04240
v 2.45732 37.25972 0.14960
v 2.99684 37.28257 0.14960
v 2.99684 37.28257 2.06740
v 2.45732 37.25972 2.06740
v 2.45732 37.25972 3.31740
v 2.99684 37.28257 3.31740
v 2.99684 37.28257 4.04240
v 2.45732 37.25972 4.04240
v 2.99684 37.28257 0.14960
v 6.11113 37.41452 0.14960
v 6.11113 37.41452 4.04240
v 2.99684 37.28257 4.04240
v 2.31245 37.25358 0.14960
v 2.32388 36.98382 0.14960
v 2.32388 36.98382 2.06740
v 2.31245 37.25358 2.06740
v 2.31245 37.25358 3.31740
v 2.32388 36.98382 3.31740
v 2.32388 36.98382 4.04240
v 2.31245 37.25358 4.04240
v 2.32388 36.98382 0.14960
v 2.53744 31.94334 0.14960
v 2.53744 31.94334 4.04240
v 2.32388 36.98382 4.04240
v 2.53744 31.94334 0.14960
v 2.56580 31.27394 0.14960
v 2.56580 31.27394 1.72740
v 2.53744 31.94334 1.72740
v 2.53744 31.94334 3.66740
v 2.56580 31.27394 3.66740
v 2.56580 31.27394 4.04240
v 2.53744 31.94334 4.04240
v 2.56580 31.27394 0.14960
v 2.71970 27.64133 0.14960
v 2.71970 27.64133 4.04240
v 2.56580 31.27394 4.04240
v 2.32078 14.19919 0.14960
v 3.35475 14.24300 0.14960
v 3.35475 14.24300 4.04240
v 2.32078 14.19919 4.04240
v 2.38114 18.52208 0.14960
v 2.42363 17.51928 0.14960
v 2.42363 17.51928 4.04240
v 2.38114 18.52208 4.04240
v 2.38114 18.52208 0.14960
v 3.10117 18.55259 0.14960
v 3.10117 18.55259 4.04240
v 2.38114 18.52208 4.04240
v 2.42363 17.51928 0.14960
v 3.14366 17.54979 0.14960
v 3.14366 17.54979 4.04240
v 2.42363 17.51928 4.04240
v 2.61750 12.07700 0.14960
v 3.27782 12.10498 0.14960
v 3.27782 12.10498 4.04240
v 2.61750 12.07700 4.04240
v 2.61750 12.07700 0.14960
v 2.67098 10.81465 0.14960
v 2.67098 10.81465 4.04240
v 2.61750 12.07700 4.04240
v 2.67098 10.81465 0.14960
v 3.33131 10.84262 0.14960
v 3.33131 10.84262 4.04240
v 2.67098 10.81465 4.04240
v 2.67098 10.81465 0.14960
v 2.71035 9.88550 0.14960
v 2.71035 9.88550 4.04240
v 2.67098 10.81465 4.04240
v 2.71722 22.54798 0.14960
v 2.96963 22.55867 0.14960
v 2.96963 22.55867 4.04240
v 2.71722 22.54798 4.04240
v 2.96963 22.55867 0.14960
v 3.04722 20.72724 0.14960
v 3.04722 20.72724 4.04240
v 2.96963 22.55867 4.04240
v 3.10117 18.55259 0.14960
v 3.14366 17.54979 0.14960
v 3.14366 17.54979 4.04240
v 3.10117 18.55259 4.04240
v 3.14366 17.54979 0.14960
v 3.23759 15.33278 0.14960
v 3.23759 15.33278 4.04240
v 3.14366 17.54979 4.04240
v 3.30845 15.33578 0.14960
v 3.35475 14.24300 0.14960
v 3.35475 14.24300 4.04240
v 3.30845 15.33578 4.04240
v 3.35046 12.34671 0.14960
v 3.41404 10.84613 0.14960
v 3.41404 10.84613 4.04240
v 3.35046 12.34671 4.04240
v 5.72412 46.54885 0.14960
v 6.11113 37.41452 0.14960
v 6.11113 37.41452 4.04240
v 5.72412 46.54885 4.04240
v 6.53488 28.54289 0.14960
v 6.81287 28.55467 0.14960
v 6.81287 28.55467 4.04240
v 6.53488 28.54289 4.04240
v 6.53488 28.54289 0.14960
v 6.56507 27.83041 0.14960
v 6.56507 27.83041 4.04240
v 6.53488 28.54289 4.04240
v 6.56507 27.83041 0.14960
v 6.87342 27.84348 0.14960
v 6.87342 27.84348 4.04240
v 6.56507 27.83041 4.04240
v 6.75432 29.93648 0.14960
v 7.58082 29.97150 0.14960
v 7.58082 29.97150 4.04240
v 6.75432 29.93648 4.04240
v 6.76205 29.75410 0.14960
v 6.81287 28.55467 0.14960
v 6.81287 28.55467 4.04240
v 6.76205 29.75410 4.04240
v 6.76205 29.75410 0.14960
v 7.33771 29.77849 0.14960
v 7.33771 29.77849 4.04240
v 6.76205 29.75410 4.04240
v 6.80851 22.76431 0.14960
v 6.93547 19.76794 0.14960
v 6.93547 19.76794 4.04240
v 6.80851 22.76431 4.04240
v 6.87342 27.84348 0.14960
v 6.89996 27.21719 0.14960
v 6.89996 27.21719 4.04240
v 6.87342 27.84348 4.04240
v 6.89996 27.21719 0.14960
v 7.69608 27.25092 0.14960
v 7.69608 27.25092 4.04240
v 6.89996 27.21719 4.04240
v 7.12144 22.69538 0.14960
v 7.24878 19.68984 0.14960
v 7.24878 19.68984 4.04240
v 7.12144 22.69538 4.04240
v 7.12144 22.69538 0.14960
v 7.84148 22.72589 0.14960
v 7.84148 22.72589 4.04240
v 7.12144 22.69538 4.04240
v 7.58082 29.97150 0.14960
v 7.69608 27.25092 0.14960
v 7.69608 27.25092 4.04240
v 7.58082 29.97150 4.04240
v 7.81180 63.26315 0.14960
v 8.03933 57.89301 0.14960
v 8.03933 57.89301 4.04240
v 7.81180 63.26315 4.04240
v 7.84148 22.72589 0.14960
v 7.87472 21.94125 0.14960
v 7.87472 21.94125 4.04240
v 7.84148 22.72589 4.04240
v 7.87472 21.94125 0.14960
v 9.20087 21.99744 0.14960
v 9.20087 21.99744 4.04240
v 7.87472 21.94125 4.04240
v 8.52340 66.52150 0.14960
v 8.69329 62.51171 0.14960
v 8.69329 62.51171 4.04240
v 8.52340 66.52150 4.04240
v 8.58124 21.12639 0.14960
v 9.42959 21.16234 0.14960
v 9.42959 21.16234 4.04240
v 8.58124 21.12639 4.04240
v 8.67485 43.06701 0.14960
v 10.12945 43.12864 0.14960
v 10.12945 43.12864 4.04240
v 8.67485 43.06701 4.04240
v 9.42959 21.16234 0.14960
v 9.44110 20.89071 0.14960
v 9.44110 20.89071 4.04240
v 9.42959 21.16234 4.04240
v 9.77819 43.00258 0.14960
v 9.85906 41.09379 0.14960
v 9.85906 41.09379 4.04240
v 9.77819 43.00258 4.04240
v 9.94206 38.87864 0.14960
v 12.50659 38.98729 0.14960
v 12.50659 38.98729 4.04240
v 9.94206 38.87864 4.04240
v 10.04267 62.21371 0.14960
v 10.67026 62.24030 0.14960
v 10.67026 62.24030 4.04240
v 10.04267 62.21371 4.04240
v 11.40518 37.80710 0.14960
v 13.22223 37.88409 0.14960
v 13.22223 37.88409 4.04240
v 11.40518 37.80710 4.04240
v 11.81009 41.45465 0.14960
v 14.61807 41.57362 0.14960
v 14.61807 41.57362 4.04240
v 11.81009 41.45465 4.04240
v 12.02190 58.62055 0.14960
v 12.12861 56.10199 0.14960
v 12.12861 56.10199 4.04240
v 12.02190 58.62055 4.04240
v 12.30393 49.72004 0.14960
v 12.35748 48.45604 0.14960
v 12.35748 48.45604 4.04240
v 12.30393 49.72004 4.04240
v 12.90423 59.36156 0.14960
v 13.95920 59.40626 0.14960
v 13.95920 59.40626 4.04240
v 12.90423 59.36156 4.04240
v 13.21772 37.99053 0.14960
v 16.05712 38.11083 0.14960
v 16.05712 38.11083 4.04240
v 13.21772 37.99053 4.04240
v 13.21772 37.99053 0.14960
v 13.22223 37.88409 0.14960
v 13.22223 37.88409 4.04240
v 13.21772 37.99053 4.04240
v 13.93881 59.88751 0.14960
v 13.95920 59.40626 0.14960
v 13.95920 59.40626 4.04240
v 13.93881 59.88751 4.04240
v 14.61807 41.57362 0.14960
v 14.66921 40.36663 0.14960
v 14.66921 40.36663 4.04240
v 14.61807 41.57362 4.04240
v 21.94105 66.33667 0.14960
v 22.01842 64.51069 0.14960
v 22.01842 64.51069 4.04240
v 21.94105 66.33667 4.04240
v 22.01842 64.51069 0.14960
v 22.25891 64.52088 0.14960
v 22.25891 64.52088 4.04240
v 22.01842 64.51069 4.04240
v -27.87378 70.14495 0.14960
v 22.25891 70.14495 0.14960
v 22.25891 7.01828 0.14960
v -27.87378 7.01828 0.14960
v -27.87378 7.01828 4.04240
v 22.25891 7.01828 4.04240
v 22.25891 70.14495 4.04240
v -27.87378 70.14495 4.04240
f 1 2 3
f 1 3 4
f 5 6 7
f 5 7 8
f 9 10 11
f 9 11 12
f 13 14 15
f 13 15 16
f 17 18 19
f 17 19 20
f 21 22 23
f 21 23 24
f 25 26 27
f 25 27 28
f 29 30 31
f 29 31 32
f 33 34 35
f 33 35 36
f 37 38 39
f 37 39 40
f 41 42 43
f 41 43 44
f 45 46 47
f 45 47 48
f 49 50 51
f 49 51 52
f 53 54 55
f 53 55 56
f 57 58 59
f 57 59 60
f 61 62 63
f 61 63 64
f 65 66 67
f 65 67 68
f 69 70 71
f 69 71 72
f 73 74 75
f 73 75 76
f 77 78 79
f 77 79 80
f 81 82 83
f 81 83 84
f 85 86 87
f 85 87 88
f 89 90 91
f 89 91 92
f 93 94 95
f 93 95 96
f 97 98 99
f 97 99 100
f 101 102 103
f 101 103 104
f 105 106 107
f 105 107 108
f 109 110 111
f 109 111 112
f 113 114 115
f 113 115 116
f 117 118 119
f 117 119 120
f 121 122 123
f 121 123 124
f 125 126 127
f 125 127 128
f 129 130 131
f 129 131 132
f 133 134 135
f 133 135 136
f 137 138 139
f 137 139 140
f 141 142 143
f 141 143 144
f 145 146 147
f 145 147 148
f 149 150 151
f 149 151 152
f 153 154 155
f 153 155 156
f 157 158 159
f 157 159 160
f 161 162 163
f 161 163 164
f 165 166 167
f 165 167 168
f 169 170 171
f 169 171 172
f 173 174 175
f 173 175 176
f 177 178 179
f 177 179 180
f 181 182 183
f 181 183 184
f 185 186 187
f 185 187 188
f 189 190 191
f 189 191 192
f 193 194 195
f 193 195 196
f 197 198 199
f 197 199 200
f 201 202 203
f 201 203 204
f 205 206 207
f 205 207 208
f 209 210 211
f 209 211 212
f 213 214 215
f 213 215 216
f 217 218 219
f 217 219 220
f 221 222 223
f 221 223 224
f 225 226 227
f 225 227 228
f 229 230 231
f 229 231 232
f 233 234 235
f 233 235 236
f 237 238 239
f 237 239 240
f 241 242 243
f 241 243 244
f 245 246 247
f 245 247 248
f 249 250 251
f 249 251 252
f 253 254 255
f 253 255 256
f 257 258 259
f 257 259 260
f 261 262 263
f 261 263 264
f 265 266 267
f 265 267 268
f 269 270 271
f 269 271 272
f 273 274 275
f 273 275 276
f 277 278 279
f 277 279 280
f 281 282 283
f 281 283 284
f 285 286 287
f 285 287 288
f 289 290 291
f 289 291 292
f 293 294 295
f 293 295 296
f 297 298 299
f 297 299 300
f 301 302 303
f 301 303 304
f 305 306 307
f 305 307 308
f 309 310 311
f 309 311 312
f 313 314 315
f 313 315 316
f 317 318 319
f 317 319 320
f 321 322 323
f 321 323 324
f 325 326 327
f 325 327 328
f 329 330 331
f 329 331 332
f 333 334 335
f 333 335 336
f 337 338 339
f 337 339 340
f 341 342 343
f 341 343 344
f 345 346 347
f 345 347 348
f 349 350 351
f 349 351 352
f 353 354 355
f 353 355 356
f 357 358 359
f 357 359 360
f 361 362 363
f 361 363 364
f 365 366 367
f 365 367 368
f 369 370 371
f 369 371 372
f 373 374 375
f 373 375 376
f 377 378 379
f 377 379 380
f 381 382 383
f 381 383 384
f 385 386 387
f 385 387 388
f 389 390 391
f 389 391 392
f 393 394 395
f 393 395 396
f 397 398 399
f 397 399 400
f 401 402 403
f 401 403 404
f 405 406 407
f 405 407 408
f 409 410 411
f 409 411 412
f 413 414 415
f 413 415 416
f 417 418 419
f 417 419 420
f 421 422 423
f 421 423 424
f 425 426 427
f 425 427 428
f 429 430 431
f 429 431 432
f 433 434 435
f 433 435 436
f 437 438 439
f 437 439 440
f 441 442 443
f 441 443 444
f 445 446 447
f 445 447 448
f 449 450 451
f 449 451 452
f 453 454 455
f 453 455 456
f 457 458 459
f 457 459 460
f 461 462 463
f 461 463 464
f 465 466 467
f 465 467 468
f 469 470 471
f 469 471 472
