# White-box proxy for ALCC2ProxyMesh, built from LCC Studio Space Recognition output.
# Y is pre-negated: Unreal's OBJ import negates Y again, landing this in the LCC frame.
# Place at the splat transform with POSITIVE uniform scale 100.
v -23.35802 -11.78313 -1.50820
v -23.07211 -12.65231 -1.50820
v -23.07211 -12.65231 0.56470
v -23.35802 -11.78313 0.56470
v -23.07211 -12.65231 -1.50820
v -22.69089 -13.81122 -1.50820
v -22.69089 -13.81122 -0.75030
v -23.07211 -12.65231 -0.75030
v -23.07211 -12.65231 0.47970
v -22.69089 -13.81122 0.47970
v -22.69089 -13.81122 0.56470
v -23.07211 -12.65231 0.56470
v -22.69089 -13.81122 -1.50820
v -22.60965 -14.05821 -1.50820
v -22.60965 -14.05821 0.56470
v -22.69089 -13.81122 0.56470
v -22.60965 -14.05821 -1.50820
v -22.32530 -14.92264 -1.50820
v -22.32530 -14.92264 -0.78030
v -22.60965 -14.05821 -0.78030
v -22.60965 -14.05821 0.47970
v -22.32530 -14.92264 0.47970
v -22.32530 -14.92264 0.56470
v -22.60965 -14.05821 0.56470
v -22.32530 -14.92264 -1.50820
v -22.07383 -15.68709 -1.50820
v -22.07383 -15.68709 0.56470
v -22.32530 -14.92264 0.56470
v -23.35802 -11.78313 -1.50820
v -18.18037 -10.07996 -1.50820
v -18.18037 -10.07996 0.56470
v -23.35802 -11.78313 0.56470
v -22.07383 -15.68709 -1.50820
v -17.18423 -14.07868 -1.50820
v -17.18423 -14.07868 0.56470
v -22.07383 -15.68709 0.56470
v -19.61743 -5.61234 -1.50820
v -19.12294 -7.11559 -1.50820
v -19.12294 -7.11559 0.56470
v -19.61743 -5.61234 0.56470
v -19.61743 -5.61234 -1.50820
v -17.10953 -4.78737 -1.50820
v -17.10953 -4.78737 0.56470
v -19.61743 -5.61234 0.56470
v -19.12294 -7.11559 -1.50820
v -18.67272 -6.96749 -1.50820
v -18.67272 -6.96749 0.56470
v -19.12294 -7.11559 0.56470
v -18.67272 -6.96749 -1.50820
v -18.17733 -8.47349 -1.50820
v -18.17733 -8.47349 0.56470
v -18.67272 -6.96749 0.56470
v -18.65691 -8.63125 -1.50820
v -18.17733 -8.47349 -1.50820
v -18.17733 -8.47349 0.56470
v -18.65691 -8.63125 0.56470
v -18.65691 -8.63125 -1.50820
v -18.18037 -10.07996 -1.50820
v -18.18037 -10.07996 0.56470
v -18.65691 -8.63125 0.56470
v -18.18037 -10.07996 -1.50820
v -18.06217 -10.43927 -1.50820
v -18.06217 -10.43927 0.56470
v -18.18037 -10.07996 0.56470
v -18.06217 -10.43927 -1.50820
v -17.90173 -10.92701 -1.50820
v -17.90173 -10.92701 0.56470
v -18.06217 -10.43927 0.56470
v -18.06217 -10.43927 -1.50820
v -17.51886 -10.26055 -1.50820
v -17.51886 -10.26055 0.56470
v -18.06217 -10.43927 0.56470
v -17.95978 -11.72097 -1.50820
v -17.65820 -11.62176 -1.50820
v -17.65820 -11.62176 0.56470
v -17.95978 -11.72097 0.56470
v -17.95978 -11.72097 -1.50820
v -17.18423 -14.07868 -1.50820
v -17.18423 -14.07868 0.56470
v -17.95978 -11.72097 0.56470
v -17.65820 -11.62176 -1.50820
v -16.92045 -13.86456 -1.50820
v -16.92045 -13.86456 0.56470
v -17.65820 -11.62176 0.56470
v -16.64387 -3.30706 -1.50820
v -14.78127 -8.96938 -1.50820
v -14.78127 -8.96938 0.56470
v -16.64387 -3.30706 0.56470
v -16.23910 -14.78469 -1.50820
v -16.22485 -14.78001 -1.50820
v -16.22485 -14.78001 0.56470
v -16.23910 -14.78469 0.56470
v -16.22485 -14.78001 -1.50820
v -15.30342 -14.47691 -1.50820
v -15.30342 -14.47691 -0.79030
v -16.22485 -14.78001 -0.79030
v -16.22485 -14.78001 0.43970
v -15.30342 -14.47691 0.43970
v -15.30342 -14.47691 0.56470
v -16.22485 -14.78001 0.56470
v -15.30342 -14.47691 -1.50820
v -15.19893 -14.44253 -1.50820
v -15.19893 -14.44253 0.56470
v -15.30342 -14.47691 0.56470
v -15.19893 -14.44253 -1.50820
v -14.53398 -14.22380 -1.50820
v -14.53398 -14.22380 -0.55030
v -15.19893 -14.44253 -0.55030
v -15.19893 -14.44253 0.39970
v -14.53398 -14.22380 0.39970
v -14.53398 -14.22380 0.56470
v -15.19893 -14.44253 0.56470
v -14.53398 -14.22380 -1.50820
v -14.44849 -14.19568 -1.50820
v -14.44849 -14.19568 0.56470
v -14.53398 -14.22380 0.56470
v -14.44849 -14.19568 -1.50820
v -13.80254 -13.98320 -1.50820
v -13.80254 -13.98320 -0.63030
v -14.44849 -14.19568 -0.63030
v -14.44849 -14.19568 0.43970
v -13.80254 -13.98320 0.43970
v -13.80254 -13.98320 0.56470
v -14.44849 -14.19568 0.56470
v -13.80254 -13.98320 -1.50820
v -13.51214 -13.88767 -1.50820
v -13.51214 -13.88767 0.56470
v -13.80254 -13.98320 0.56470
v -16.18700 -8.33729 -1.50820
v -15.86212 -9.32492 -1.50820
v -15.86212 -9.32492 0.56470
v -16.18700 -8.33729 0.56470
v -16.10325 -3.06180 -1.50820
v -15.40595 -5.18161 -1.50820
v -15.40595 -5.18161 0.56470
v -16.10325 -3.06180 0.56470
v -16.03782 -14.31716 -1.50820
v -15.42255 -14.11477 -1.50820
v -15.42255 -14.11477 -0.79030
v -16.03782 -14.31716 -0.79030
v -16.03782 -14.31716 0.43970
v -15.42255 -14.11477 0.43970
v -15.42255 -14.11477 0.56470
v -16.03782 -14.31716 0.56470
v -15.42255 -14.11477 -1.50820
v -15.31806 -14.08040 -1.50820
v -15.31806 -14.08040 0.56470
v -15.42255 -14.11477 0.56470
v -15.31806 -14.08040 -1.50820
v -14.65311 -13.86166 -1.50820
v -14.65311 -13.86166 -0.55030
v -15.31806 -14.08040 -0.55030
v -15.31806 -14.08040 0.39970
v -14.65311 -13.86166 0.39970
v -14.65311 -13.86166 0.56470
v -15.31806 -14.08040 0.56470
v -14.65311 -13.86166 -1.50820
v -14.56761 -13.83354 -1.50820
v -14.56761 -13.83354 0.56470
v -14.65311 -13.86166 0.56470
v -14.56761 -13.83354 -1.50820
v -13.92166 -13.62106 -1.50820
v -13.92166 -13.62106 -0.63030
v -14.56761 -13.83354 -0.63030
v -14.56761 -13.83354 0.43970
v -13.92166 -13.62106 0.43970
v -13.92166 -13.62106 0.56470
v -14.56761 -13.83354 0.56470
v -13.92166 -13.62106 -1.50820
v -13.41305 -13.45375 -1.50820
v -13.41305 -13.45375 0.56470
v -13.92166 -13.62106 0.56470
v -15.86212 -9.32492 -1.50820
v -14.78127 -8.96938 -1.50820
v -14.78127 -8.96938 0.56470
v -15.86212 -9.32492 0.56470
v -15.13741 -4.19475 -1.50820
v -14.18261 -3.88067 -1.50820
v -14.18261 -3.88067 0.56470
v -15.13741 -4.19475 0.56470
v -14.98413 -9.58270 -1.50820
v -14.63543 -10.64276 -1.50820
v -14.63543 -10.64276 0.56470
v -14.98413 -9.58270 0.56470
v -14.98413 -9.58270 -1.50820
v -14.53952 -9.43645 -1.50820
v -14.53952 -9.43645 0.56470
v -14.98413 -9.58270 0.56470
v -14.70176 -8.94322 -1.50820
v -14.53952 -9.43645 -1.50820
v -14.53952 -9.43645 0.56470
v -14.70176 -8.94322 0.56470
v -14.63543 -10.64276 -1.50820
v -13.35760 -10.22242 -1.50820
v -13.35760 -10.22242 0.56470
v -14.63543 -10.64276 0.56470
v -14.59546 -10.76426 -1.50820
v -12.96337 -10.22740 -1.50820
v -12.96337 -10.22740 0.56470
v -14.59546 -10.76426 0.56470
v -13.74072 -9.05773 -1.50820
v -13.35760 -10.22242 -1.50820
v -13.35760 -10.22242 0.56470
v -13.74072 -9.05773 0.56470
v -13.74072 -9.05773 -1.50820
v -11.16745 -8.21127 -1.50820
v -11.16745 -8.21127 0.56470
v -13.74072 -9.05773 0.56470
v -13.64965 -12.73450 -1.50820
v -13.31124 -12.62318 -1.50820
v -13.31124 -12.62318 0.56470
v -13.64965 -12.73450 0.56470
v -13.60374 -12.87407 -1.50820
v -13.41305 -13.45375 -1.50820
v -13.41305 -13.45375 0.56470
v -13.60374 -12.87407 0.56470
v -13.60374 -12.87407 -1.50820
v -12.41887 -12.48431 -1.50820
v -12.41887 -12.48431 0.56470
v -13.60374 -12.87407 0.56470
v -13.35760 -10.22242 -1.50820
v -13.00334 -10.10589 -1.50820
v -13.00334 -10.10589 0.56470
v -13.35760 -10.22242 0.56470
v -13.00334 -10.10589 -1.50820
v -12.96337 -10.22740 -1.50820
v -12.96337 -10.22740 0.56470
v -13.00334 -10.10589 0.56470
v -12.70322 -11.61985 -1.50820
v -12.54560 -11.56801 -1.50820
v -12.54560 -11.56801 0.56470
v -12.70322 -11.61985 0.56470
v -12.70322 -11.61985 -1.50820
v -12.41887 -12.48431 -1.50820
v -12.41887 -12.48431 0.56470
v -12.70322 -11.61985 0.56470
v -12.54560 -11.56801 -1.50820
v -12.47559 -11.78084 -1.50820
v -12.47559 -11.78084 0.56470
v -12.54560 -11.56801 0.56470
v -12.47559 -11.78084 -1.50820
v -11.87626 -11.58369 -1.50820
v -11.87626 -11.58369 0.56470
v -12.47559 -11.78084 0.56470
v -12.17786 -9.89676 -1.50820
v -11.98823 -10.47326 -1.50820
v -11.98823 -10.47326 0.56470
v -12.17786 -9.89676 0.56470
v -12.01015 -7.22633 -1.50820
v -9.77499 -6.49109 -1.50820
v -9.77499 -6.49109 0.56470
v -12.01015 -7.22633 0.56470
v -11.87626 -11.58369 -1.50820
v -11.65717 -12.24975 -1.50820
v -11.65717 -12.24975 0.56470
v -11.87626 -11.58369 0.56470
v -11.65717 -12.24975 -1.50820
v -9.35725 -11.49320 -1.50820
v -9.35725 -11.49320 0.56470
v -11.65717 -12.24975 0.56470
v -11.33382 -7.70550 -1.50820
v -11.16745 -8.21127 -1.50820
v -11.16745 -8.21127 0.56470
v -11.33382 -7.70550 0.56470
v -11.33382 -7.70550 -1.50820
v -9.45036 -7.08594 -1.50820
v -9.45036 -7.08594 0.56470
v -11.33382 -7.70550 0.56470
v -10.42417 -8.24974 0.55970
v -10.04018 -8.12343 0.55970
v -10.04018 -8.12343 0.56470
v -10.42417 -8.24974 0.56470
v -10.42417 -8.24974 -1.50820
v -9.35725 -11.49320 -1.50820
v -9.35725 -11.49320 0.56470
v -10.42417 -8.24974 0.56470
v -10.30639 -4.28278 -1.50820
v -9.87234 -5.60232 -1.50820
v -9.87234 -5.60232 0.56470
v -10.30639 -4.28278 0.56470
v -10.04018 -8.12343 0.55970
v -9.94022 -8.42729 0.55970
v -9.94022 -8.42729 0.56470
v -10.04018 -8.12343 0.56470
v -9.94022 -8.42729 0.55970
v -9.18188 -8.17784 0.55970
v -9.18188 -8.17784 0.56470
v -9.94022 -8.42729 0.56470
v -9.18188 -8.17784 -1.50820
v -9.10760 -8.15340 -1.50820
v -9.10760 -8.15340 0.56470
v -9.18188 -8.17784 0.56470
v -9.87234 -5.60232 -1.50820
v -7.94370 -4.96791 -1.50820
v -7.94370 -4.96791 0.56470
v -9.87234 -5.60232 0.56470
v -9.21730 -7.81989 -1.50820
v -8.86673 -7.70458 -1.50820
v -8.86673 -7.70458 0.56470
v -9.21730 -7.81989 0.56470
v -9.21730 -7.81989 -1.50820
v -9.10760 -8.15340 -1.50820
v -9.10760 -8.15340 0.56470
v -9.21730 -7.81989 0.56470
v -8.86673 -7.70458 -1.50820
v -8.74812 -8.06516 -1.50820
v -8.74812 -8.06516 0.56470
v -8.86673 -7.70458 0.56470
v -8.74046 -8.08846 -1.50820
v -7.18927 -7.57820 -1.50820
v -7.18927 -7.57820 0.56470
v -8.74046 -8.08846 0.56470
v -8.57637 -8.06043 -1.50820
v -7.28080 -11.99898 -1.50820
v -7.28080 -11.99898 0.56470
v -8.57637 -8.06043 0.56470
v -6.21552 -4.08437 -1.50820
v -4.93196 -3.66215 -1.50820
v -4.93196 -3.66215 0.56470
v -6.21552 -4.08437 0.56470
v -4.48227 -1.23591 -1.50820
v -3.05487 -0.76637 -1.50820
v -3.05487 -0.76637 0.56470
v -4.48227 -1.23591 0.56470
v -4.46916 -4.16164 -1.50820
v -3.99446 -4.00549 -1.50820
v -3.99446 -4.00549 0.56470
v -4.46916 -4.16164 0.56470
v -4.11198 -3.64823 -1.50820
v -3.99446 -4.00549 -1.50820
v -3.99446 -4.00549 0.56470
v -4.11198 -3.64823 0.56470
v -4.11198 -3.64823 -1.50820
v -3.04698 -3.29791 -1.50820
v -3.04698 -3.29791 0.56470
v -4.11198 -3.64823 0.56470
v -3.04698 -3.29791 0.55970
v -2.92680 -3.25837 0.55970
v -2.92680 -3.25837 0.56470
v -3.04698 -3.29791 0.56470
v -3.98207 -2.76102 -1.50820
v -3.89175 -3.03559 -1.50820
v -3.89175 -3.03559 0.56470
v -3.98207 -2.76102 0.56470
v -3.51932 -4.84488 -1.50820
v -2.90087 -4.64144 -1.50820
v -2.90087 -4.64144 0.56470
v -3.51932 -4.84488 0.56470
v -3.10271 -0.08048 -1.50820
v -1.81089 0.34446 -1.50820
v -1.81089 0.34446 0.56470
v -3.10271 -0.08048 0.56470
v -3.04784 -4.19465 -1.50820
v -2.90087 -4.64144 -1.50820
v -2.90087 -4.64144 0.56470
v -3.04784 -4.19465 0.56470
v -2.86999 -4.73532 -1.50820
v -2.04202 -4.46296 -1.50820
v -2.04202 -4.46296 0.56470
v -2.86999 -4.73532 0.56470
v -2.06487 -16.64597 -1.50820
v -1.60352 -16.49421 -1.50820
v -1.60352 -16.49421 0.56470
v -2.06487 -16.64597 0.56470
v -2.05715 -4.41697 -1.50820
v -0.16131 -3.79335 -1.50820
v -0.16131 -3.79335 0.56470
v -2.05715 -4.41697 0.56470
v -2.04202 -4.46296 -1.50820
v -1.82945 -5.10918 -1.50820
v -1.82945 -5.10918 0.56470
v -2.04202 -4.46296 0.56470
v -1.39088 0.14080 -1.50820
v -0.03013 0.58841 -1.50820
v -0.03013 0.58841 0.56470
v -1.39088 0.14080 0.56470
v -0.50305 -2.75446 -1.50820
v -0.17401 -3.75472 -1.50820
v -0.17401 -3.75472 0.56470
v -0.50305 -2.75446 0.56470
v 1.26641 -6.45974 -1.50820
v 1.61114 -6.34634 -1.50820
v 1.61114 -6.34634 0.56470
v 1.26641 -6.45974 0.56470
v 1.26641 -6.45974 -1.50820
v 2.04293 -8.82039 -1.50820
v 2.04293 -8.82039 0.56470
v 1.26641 -6.45974 0.56470
v -23.35802 0.58841 -1.50820
v 2.04293 0.58841 -1.50820
v 2.04293 -16.64597 -1.50820
v -23.35802 -16.64597 -1.50820
v -23.35802 -16.64597 0.56470
v 2.04293 -16.64597 0.56470
v 2.04293 0.58841 0.56470
v -23.35802 0.58841 0.56470
f 1 2 3
f 1 3 4
f 5 6 7
f 5 7 8
f 9 10 11
f 9 11 12
f 13 14 15
f 13 15 16
f 17 18 19
f 17 19 20
f 21 22 23
f 21 23 24
f 25 26 27
f 25 27 28
f 29 30 31
f 29 31 32
f 33 34 35
f 33 35 36
f 37 38 39
f 37 39 40
f 41 42 43
f 41 43 44
f 45 46 47
f 45 47 48
f 49 50 51
f 49 51 52
f 53 54 55
f 53 55 56
f 57 58 59
f 57 59 60
f 61 62 63
f 61 63 64
f 65 66 67
f 65 67 68
f 69 70 71
f 69 71 72
f 73 74 75
f 73 75 76
f 77 78 79
f 77 79 80
f 81 82 83
f 81 83 84
f 85 86 87
f 85 87 88
f 89 90 91
f 89 91 92
f 93 94 95
f 93 95 96
f 97 98 99
f 97 99 100
f 101 102 103
f 101 103 104
f 105 106 107
f 105 107 108
f 109 110 111
f 109 111 112
f 113 114 115
f 113 115 116
f 117 118 119
f 117 119 120
f 121 122 123
f 121 123 124
f 125 126 127
f 125 127 128
f 129 130 131
f 129 131 132
f 133 134 135
f 133 135 136
f 137 138 139
f 137 139 140
f 141 142 143
f 141 143 144
f 145 146 147
f 145 147 148
f 149 150 151
f 149 151 152
f 153 154 155
f 153 155 156
f 157 158 159
f 157 159 160
f 161 162 163
f 161 163 164
f 165 166 167
f 165 167 168
f 169 170 171
f 169 171 172
f 173 174 175
f 173 175 176
f 177 178 179
f 177 179 180
f 181 182 183
f 181 183 184
f 185 186 187
f 185 187 188
f 189 190 191
f 189 191 192
f 193 194 195
f 193 195 196
f 197 198 199
f 197 199 200
f 201 202 203
f 201 203 204
f 205 206 207
f 205 207 208
f 209 210 211
f 209 211 212
f 213 214 215
f 213 215 216
f 217 218 219
f 217 219 220
f 221 222 223
f 221 223 224
f 225 226 227
f 225 227 228
f 229 230 231
f 229 231 232
f 233 234 235
f 233 235 236
f 237 238 239
f 237 239 240
f 241 242 243
f 241 243 244
f 245 246 247
f 245 247 248
f 249 250 251
f 249 251 252
f 253 254 255
f 253 255 256
f 257 258 259
f 257 259 260
f 261 262 263
f 261 263 264
f 265 266 267
f 265 267 268
f 269 270 271
f 269 271 272
f 273 274 275
f 273 275 276
f 277 278 279
f 277 279 280
f 281 282 283
f 281 283 284
f 285 286 287
f 285 287 288
f 289 290 291
f 289 291 292
f 293 294 295
f 293 295 296
f 297 298 299
f 297 299 300
f 301 302 303
f 301 303 304
f 305 306 307
f 305 307 308
f 309 310 311
f 309 311 312
f 313 314 315
f 313 315 316
f 317 318 319
f 317 319 320
f 321 322 323
f 321 323 324
f 325 326 327
f 325 327 328
f 329 330 331
f 329 331 332
f 333 334 335
f 333 335 336
f 337 338 339
f 337 339 340
f 341 342 343
f 341 343 344
f 345 346 347
f 345 347 348
f 349 350 351
f 349 351 352
f 353 354 355
f 353 355 356
f 357 358 359
f 357 359 360
f 361 362 363
f 361 363 364
f 365 366 367
f 365 367 368
f 369 370 371
f 369 371 372
f 373 374 375
f 373 375 376
f 377 378 379
f 377 379 380
f 381 382 383
f 381 383 384
f 385 386 387
f 385 387 388
f 389 390 391
f 389 391 392
f 393 394 395
f 393 395 396
