# White-box proxy for ALCC2ProxyMesh, built from LCC Studio Space Recognition output.
# Y is pre-negated: Unreal's OBJ import negates Y again, landing this in the LCC frame.
# Place at the splat transform with POSITIVE uniform scale 100.
v -7.75333 -4.54259 -0.85000
v -6.81560 -2.26723 -0.85000
v -6.81560 -2.26723 2.18750
v -7.75333 -4.54259 2.18750
v -6.31349 -1.61522 -0.85000
v -5.20852 1.06593 -0.85000
v -5.20852 1.06593 2.18750
v -6.31349 -1.61522 2.18750
v -4.11189 -17.37165 -0.85000
v -6.22398 -16.50120 -0.85000
v -6.22398 -16.50120 2.18750
v -4.11189 -17.37165 2.18750
v -5.90294 -15.57514 -0.85000
v -4.77374 -12.83519 -0.85000
v -4.77374 -12.83519 2.18750
v -5.90294 -15.57514 2.18750
v -3.10995 -10.55099 -0.85000
v -2.69034 -9.53283 -0.85000
v -2.69034 -9.53283 2.18750
v -3.10995 -10.55099 2.18750
v -2.69034 -9.53283 -0.85000
v -2.27882 -8.53431 -0.85000
v -2.27882 -8.53431 -0.84750
v -2.69034 -9.53283 -0.84750
v -2.69034 -9.53283 1.51250
v -2.27882 -8.53431 1.51250
v -2.27882 -8.53431 2.18750
v -2.69034 -9.53283 2.18750
v -2.27882 -8.53431 -0.85000
v -2.18213 -8.29969 -0.85000
v -2.18213 -8.29969 2.18750
v -2.27882 -8.53431 2.18750
v -2.18213 -8.29969 -0.85000
v -1.74394 -7.23644 -0.85000
v -1.74394 -7.23644 -0.15750
v -2.18213 -8.29969 -0.15750
v -2.18213 -8.29969 1.73250
v -1.74394 -7.23644 1.73250
v -1.74394 -7.23644 2.18750
v -2.18213 -8.29969 2.18750
v -1.74394 -7.23644 -0.85000
v -1.52155 -6.69683 -0.85000
v -1.52155 -6.69683 2.18750
v -1.74394 -7.23644 2.18750
v -1.53769 -11.19896 -0.85000
v -1.94912 -11.02940 -0.85000
v -1.94912 -11.02940 2.18750
v -1.53769 -11.19896 2.18750
v -1.94912 -11.02940 -0.85000
v -2.83670 -10.66361 -0.85000
v -2.83670 -10.66361 -0.06750
v -1.94912 -11.02940 -0.06750
v -1.94912 -11.02940 1.62250
v -2.83670 -10.66361 1.62250
v -2.83670 -10.66361 2.18750
v -1.94912 -11.02940 2.18750
v -2.83670 -10.66361 -0.85000
v -3.10995 -10.55099 -0.85000
v -3.10995 -10.55099 2.18750
v -2.83670 -10.66361 2.18750
v -1.42252 -10.91951 -0.85000
v -1.53769 -11.19896 -0.85000
v -1.53769 -11.19896 2.18750
v -1.42252 -10.91951 2.18750
v 1.04923 -11.93818 -0.85000
v -1.42252 -10.91951 -0.85000
v -1.42252 -10.91951 2.18750
v 1.04923 -11.93818 2.18750
v -1.32804 -6.80993 -0.85000
v -0.61494 -5.07963 -0.85000
v -0.61494 -5.07963 2.18750
v -1.32804 -6.80993 2.18750
v -1.12286 -0.93619 -0.85000
v -0.70476 0.07831 -0.85000
v -0.70476 0.07831 2.18750
v -1.12286 -0.93619 2.18750
v 0.22588 -1.49204 -0.85000
v -1.12286 -0.93619 -0.85000
v -1.12286 -0.93619 2.18750
v 0.22588 -1.49204 2.18750
v -1.00359 0.20147 -0.85000
v -0.64362 1.07491 -0.85000
v -0.64362 1.07491 2.18750
v -1.00359 0.20147 2.18750
v -0.70476 0.07831 -0.85000
v -1.00359 0.20147 -0.85000
v -1.00359 0.20147 2.18750
v -0.70476 0.07831 2.18750
v -0.64362 1.07491 -0.85000
v -0.56066 1.04072 -0.85000
v -0.56066 1.04072 2.18750
v -0.64362 1.07491 2.18750
v -0.56066 1.04072 -0.85000
v -0.26480 0.91879 -0.85000
v -0.26480 0.91879 -0.22750
v -0.56066 1.04072 -0.22750
v -0.56066 1.04072 1.43250
v -0.26480 0.91879 1.43250
v -0.26480 0.91879 2.18750
v -0.56066 1.04072 2.18750
v -0.61494 -5.07963 -0.85000
v 1.54538 -5.96995 -0.85000
v 1.54538 -5.96995 2.18750
v -0.61494 -5.07963 2.18750
v -0.37760 -4.61585 -0.85000
v -0.28511 -4.39141 -0.85000
v -0.28511 -4.39141 2.18750
v -0.37760 -4.61585 2.18750
v 1.74322 -5.48990 -0.85000
v -0.37760 -4.61585 -0.85000
v -0.37760 -4.61585 2.18750
v 1.74322 -5.48990 2.18750
v -0.33303 -4.37166 -0.85000
v 0.70914 -1.84289 -0.85000
v 0.70914 -1.84289 2.18750
v -0.33303 -4.37166 2.18750
v 0.91365 -4.88545 -0.85000
v -0.28511 -4.39141 -0.85000
v -0.28511 -4.39141 2.18750
v 0.91365 -4.88545 2.18750
v -0.26480 0.91879 -0.85000
v -0.25146 0.95115 -0.85000
v -0.25146 0.95115 2.18750
v -0.26480 0.91879 2.18750
v -0.25146 0.95115 -0.85000
v -0.00760 1.54287 -0.85000
v -0.00760 1.54287 -0.22750
v -0.25146 0.95115 -0.22750
v -0.25146 0.95115 1.43250
v -0.00760 1.54287 1.43250
v -0.00760 1.54287 2.18750
v -0.25146 0.95115 2.18750
v -0.00760 1.54287 -0.85000
v 0.05839 1.70297 -0.85000
v 0.05839 1.70297 2.18750
v -0.00760 1.54287 2.18750
v 0.05839 1.70297 -0.85000
v 2.28195 0.78658 -0.85000
v 2.28195 0.78658 2.18750
v 0.05839 1.70297 2.18750
v 2.28195 0.78658 -0.85000
v 3.59483 0.24551 -0.85000
v 3.59483 0.24551 -0.58750
v 2.28195 0.78658 -0.58750
v 2.28195 0.78658 1.92250
v 3.59483 0.24551 1.92250
v 3.59483 0.24551 2.18750
v 2.28195 0.78658 2.18750
v 3.59483 0.24551 -0.85000
v 3.97249 0.08987 -0.85000
v 3.97249 0.08987 2.18750
v 3.59483 0.24551 2.18750
v 0.11375 -3.73836 -0.85000
v 0.95663 -1.69315 -0.85000
v 0.95663 -1.69315 2.18750
v 0.11375 -3.73836 2.18750
v 0.30926 -1.67809 -0.85000
v 0.68549 -1.83314 -0.85000
v 0.68549 -1.83314 2.18750
v 0.30926 -1.67809 2.18750
v 0.39795 -1.46290 -0.85000
v 0.30926 -1.67809 -0.85000
v 0.30926 -1.67809 2.18750
v 0.39795 -1.46290 2.18750
v 0.82561 -1.63915 -0.85000
v 0.39795 -1.46290 -0.85000
v 0.39795 -1.46290 2.18750
v 0.82561 -1.63915 2.18750
v 2.45483 -13.10930 -0.85000
v 0.70397 -12.38772 -0.85000
v 0.70397 -12.38772 2.18750
v 2.45483 -13.10930 2.18750
v 0.73693 -1.85434 -0.85000
v 0.82561 -1.63915 -0.85000
v 0.82561 -1.63915 2.18750
v 0.73693 -1.85434 2.18750
v 1.54538 -5.96995 -0.85000
v 1.74322 -5.48990 -0.85000
v 1.74322 -5.48990 2.18750
v 1.54538 -5.96995 2.18750
v 1.74322 -5.48990 -0.85000
v 1.83593 -5.26494 -0.85000
v 1.83593 -5.26494 2.18750
v 1.74322 -5.48990 2.18750
v 3.30054 -11.05722 -0.85000
v 2.45483 -13.10930 -0.85000
v 2.45483 -13.10930 2.18750
v 3.30054 -11.05722 2.18750
v 2.88099 -13.43159 -0.85000
v 3.41956 -12.12479 -0.85000
v 3.41956 -12.12479 2.18750
v 2.88099 -13.43159 2.18750
v 5.60738 -14.55520 -0.85000
v 2.88099 -13.43159 -0.85000
v 2.88099 -13.43159 2.18750
v 5.60738 -14.55520 2.18750
v 3.18858 -6.35216 -0.85000
v 3.00389 -6.80029 -0.85000
v 3.00389 -6.80029 2.18750
v 3.18858 -6.35216 2.18750
v 3.00389 -6.80029 -0.85000
v 3.59734 -7.04486 -0.85000
v 3.59734 -7.04486 2.18750
v 3.00389 -6.80029 2.18750
v 3.29347 -6.09766 -0.85000
v 3.18858 -6.35216 -0.85000
v 3.18858 -6.35216 2.18750
v 3.29347 -6.09766 2.18750
v 5.22171 -7.19006 -0.85000
v 3.18858 -6.35216 -0.85000
v 3.18858 -6.35216 2.18750
v 5.22171 -7.19006 2.18750
v 3.80822 -11.26645 -0.85000
v 3.30054 -11.05722 -0.85000
v 3.30054 -11.05722 2.18750
v 3.80822 -11.26645 2.18750
v 3.41956 -12.12479 -0.85000
v 3.96765 -12.35067 -0.85000
v 3.96765 -12.35067 2.18750
v 3.41956 -12.12479 2.18750
v 3.59734 -7.04486 -0.85000
v 3.44424 -7.41635 -0.85000
v 3.44424 -7.41635 2.18750
v 3.59734 -7.04486 2.18750
v 3.44424 -7.41635 -0.85000
v 4.36949 -7.79767 -0.85000
v 4.36949 -7.79767 2.18750
v 3.44424 -7.41635 2.18750
v 3.55108 -11.89039 -0.85000
v 3.80822 -11.26645 -0.85000
v 3.80822 -11.26645 2.18750
v 3.55108 -11.89039 2.18750
v 4.06932 -12.10397 -0.85000
v 3.55108 -11.89039 -0.85000
v 3.55108 -11.89039 2.18750
v 4.06932 -12.10397 2.18750
v 3.97249 0.08987 -0.85000
v 3.77526 -0.38870 -0.85000
v 3.77526 -0.38870 2.18750
v 3.97249 0.08987 2.18750
v 3.77526 -0.38870 -0.85000
v 4.38725 -0.64092 -0.85000
v 4.38725 -0.64092 2.18750
v 3.77526 -0.38870 2.18750
v 3.96765 -12.35067 -0.85000
v 4.06932 -12.10397 -0.85000
v 4.06932 -12.10397 2.18750
v 3.96765 -12.35067 2.18750
v 4.36949 -7.79767 -0.85000
v 4.51855 -7.43598 -0.85000
v 4.51855 -7.43598 2.18750
v 4.36949 -7.79767 2.18750
v 4.65515 -0.25158 -0.85000
v 4.41508 -0.83409 -0.85000
v 4.41508 -0.83409 2.18750
v 4.65515 -0.25158 2.18750
v 4.41508 -0.83409 -0.85000
v 6.47053 -1.68119 -0.85000
v 6.47053 -1.68119 2.18750
v 4.41508 -0.83409 2.18750
v 4.51855 -7.43598 -0.85000
v 4.88491 -7.58697 -0.85000
v 4.88491 -7.58697 2.18750
v 4.51855 -7.43598 2.18750
v 6.26397 -13.26383 -0.85000
v 4.65349 -12.60011 -0.85000
v 4.65349 -12.60011 2.18750
v 6.26397 -13.26383 2.18750
v 4.67394 -9.66319 -0.85000
v 6.07216 -6.27051 -0.85000
v 6.07216 -6.27051 2.18750
v 4.67394 -9.66319 2.18750
v 4.88491 -7.58697 -0.85000
v 4.74377 -7.92943 -0.85000
v 4.74377 -7.92943 2.18750
v 4.88491 -7.58697 2.18750
v 4.76822 -12.86858 -0.85000
v 6.07972 -13.40908 -0.85000
v 6.07972 -13.40908 2.18750
v 4.76822 -12.86858 2.18750
v 5.73956 -6.03001 -0.85000
v 5.25570 -7.20407 -0.85000
v 5.25570 -7.20407 2.18750
v 5.73956 -6.03001 2.18750
v 6.07972 -13.40908 -0.85000
v 5.60738 -14.55520 -0.85000
v 5.60738 -14.55520 2.18750
v 6.07972 -13.40908 2.18750
v 5.71432 -14.73040 -0.85000
v 6.31078 -13.28312 -0.85000
v 6.31078 -13.28312 2.18750
v 5.71432 -14.73040 2.18750
v 8.21444 -15.76076 -0.85000
v 5.71432 -14.73040 -0.85000
v 5.71432 -14.73040 2.18750
v 8.21444 -15.76076 2.18750
v 6.86561 -11.86320 -0.85000
v 6.28483 -13.27243 -0.85000
v 6.28483 -13.27243 2.18750
v 6.86561 -11.86320 2.18750
v 6.47053 -1.68119 -0.85000
v 6.63170 -1.29013 -0.85000
v 6.63170 -1.29013 2.18750
v 6.47053 -1.68119 2.18750
v 6.63170 -1.29013 -0.85000
v 7.61221 -1.69422 -0.85000
v 7.61221 -1.69422 2.18750
v 6.63170 -1.29013 2.18750
v 12.30537 -21.24247 -0.85000
v 10.01709 -20.29941 -0.85000
v 10.01709 -20.29941 2.18750
v 12.30537 -21.24247 2.18750
v 10.01709 -20.29941 -0.85000
v 9.09253 -19.91837 -0.85000
v 9.09253 -19.91837 -0.00750
v 10.01709 -20.29941 -0.00750
v 10.01709 -20.29941 1.30250
v 9.09253 -19.91837 1.30250
v 9.09253 -19.91837 2.18750
v 10.01709 -20.29941 2.18750
v 9.09253 -19.91837 -0.85000
v 8.69497 -19.75453 -0.85000
v 8.69497 -19.75453 2.18750
v 9.09253 -19.91837 2.18750
v 8.69497 -19.75453 -0.85000
v 7.77040 -19.37349 -0.85000
v 7.77040 -19.37349 -0.00750
v 8.69497 -19.75453 -0.00750
v 8.69497 -19.75453 1.88250
v 7.77040 -19.37349 1.88250
v 7.77040 -19.37349 2.18750
v 8.69497 -19.75453 2.18750
v 7.77040 -19.37349 -0.85000
v 6.88190 -19.00732 -0.85000
v 6.88190 -19.00732 2.18750
v 7.77040 -19.37349 2.18750
v 7.09223 -11.95659 -0.85000
v 6.89156 -11.87389 -0.85000
v 6.89156 -11.87389 2.18750
v 7.09223 -11.95659 2.18750
v 7.74436 -1.74868 -0.85000
v 7.06730 -3.39154 -0.85000
v 7.06730 -3.39154 2.18750
v 7.74436 -1.74868 2.18750
v 7.06730 -3.39154 -0.85000
v 7.59169 -3.60766 -0.85000
v 7.59169 -3.60766 2.18750
v 7.06730 -3.39154 2.18750
v 7.30153 -18.93173 -0.85000
v 7.86179 -17.57226 -0.85000
v 7.86179 -17.57226 2.18750
v 7.30153 -18.93173 2.18750
v 8.54975 -19.44615 -0.85000
v 7.85796 -19.16105 -0.85000
v 7.85796 -19.16105 -0.00750
v 8.54975 -19.44615 -0.00750
v 8.54975 -19.44615 1.88250
v 7.85796 -19.16105 1.88250
v 7.85796 -19.16105 2.18750
v 8.54975 -19.44615 2.18750
v 7.85796 -19.16105 -0.85000
v 7.30153 -18.93173 -0.85000
v 7.30153 -18.93173 2.18750
v 7.85796 -19.16105 2.18750
v 8.87084 -11.05022 -0.85000
v 7.32372 -10.41261 -0.85000
v 7.32372 -10.41261 2.18750
v 8.87084 -11.05022 2.18750
v 7.86179 -17.57226 -0.85000
v 7.45605 -17.40505 -0.85000
v 7.45605 -17.40505 2.18750
v 7.86179 -17.57226 2.18750
v 7.58067 -14.18075 -0.85000
v 8.87084 -11.05022 -0.85000
v 8.87084 -11.05022 2.18750
v 7.58067 -14.18075 2.18750
v 7.59169 -3.60766 -0.85000
v 8.23314 -2.05123 -0.85000
v 8.23314 -2.05123 2.18750
v 7.59169 -3.60766 2.18750
v 7.61221 -1.69422 -0.85000
v 7.74861 -1.36325 -0.85000
v 7.74861 -1.36325 2.18750
v 7.61221 -1.69422 2.18750
v 7.86179 -17.57226 -0.85000
v 9.09429 -14.58168 -0.85000
v 9.09429 -14.58168 2.18750
v 7.86179 -17.57226 2.18750
v 8.90078 -14.09540 -0.85000
v 8.21444 -15.76076 -0.85000
v 8.21444 -15.76076 2.18750
v 8.90078 -14.09540 2.18750
v 8.21558 -2.09383 -0.85000
v 11.18548 -3.31780 -0.85000
v 11.18548 -3.31780 2.18750
v 8.21558 -2.09383 2.18750
v 8.91013 -7.27960 -0.85000
v 8.45332 -8.38805 -0.85000
v 8.45332 -8.38805 2.18750
v 8.91013 -7.27960 2.18750
v 9.38033 1.50900 -0.85000
v 8.50774 -0.60828 -0.85000
v 8.50774 -0.60828 2.18750
v 9.38033 1.50900 2.18750
v 8.53276 5.21511 -0.85000
v 10.64063 4.34640 -0.85000
v 10.64063 4.34640 2.18750
v 8.53276 5.21511 2.18750
v 8.79618 -8.13273 -0.85000
v 8.71240 -8.33603 -0.85000
v 8.71240 -8.33603 2.18750
v 8.79618 -8.13273 2.18750
v 8.71240 -8.33603 -0.85000
v 10.71901 -9.16300 -0.85000
v 10.71901 -9.16300 2.18750
v 8.71240 -8.33603 2.18750
v 8.79618 -8.13273 -0.85000
v 9.11327 -7.36332 -0.85000
v 9.11327 -7.36332 2.18750
v 8.79618 -8.13273 2.18750
v 10.69658 -8.91593 -0.85000
v 8.79618 -8.13273 -0.85000
v 8.79618 -8.13273 2.18750
v 10.69658 -8.91593 2.18750
v 8.83490 -1.67278 -0.85000
v 9.19093 -1.81951 -0.85000
v 9.19093 -1.81951 2.18750
v 8.83490 -1.67278 2.18750
v 9.11327 -7.36332 -0.85000
v 8.91013 -7.27960 -0.85000
v 8.91013 -7.27960 2.18750
v 9.11327 -7.36332 2.18750
v 8.97024 -2.35501 -0.85000
v 9.13435 -1.95679 -0.85000
v 9.13435 -1.95679 2.18750
v 8.97024 -2.35501 2.18750
v 10.64063 4.34640 -0.85000
v 9.99142 2.77112 -0.85000
v 9.99142 2.77112 2.18750
v 10.64063 4.34640 2.18750
v 10.12587 -25.46583 -0.85000
v 11.40627 -22.35902 -0.85000
v 11.40627 -22.35902 2.18750
v 10.12587 -25.46583 2.18750
v 10.78439 -9.18995 -0.85000
v 10.49897 -9.88251 -0.85000
v 10.49897 -9.88251 2.18750
v 10.78439 -9.18995 2.18750
v 10.55885 -2.25219 -0.85000
v 11.08000 -2.46697 -0.85000
v 11.08000 -2.46697 2.18750
v 10.55885 -2.25219 2.18750
v 12.18223 -5.31108 -0.85000
v 10.69658 -8.91593 -0.85000
v 10.69658 -8.91593 2.18750
v 12.18223 -5.31108 2.18750
v 12.75562 -4.22128 -0.85000
v 10.71901 -9.16300 -0.85000
v 10.71901 -9.16300 2.18750
v 12.75562 -4.22128 2.18750
v 10.94090 -15.34271 -0.85000
v 12.07833 -12.58279 -0.85000
v 12.07833 -12.58279 2.18750
v 10.94090 -15.34271 2.18750
v 12.07833 -12.58279 -0.85000
v 11.01409 -12.14419 -0.85000
v 11.01409 -12.14419 2.18750
v 12.07833 -12.58279 2.18750
v 12.64118 -10.15827 -0.85000
v 11.32115 -9.61425 -0.85000
v 11.32115 -9.61425 2.18750
v 12.64118 -10.15827 2.18750
v 11.36771 -10.29157 -0.85000
v 12.40932 -10.72084 -0.85000
v 12.40932 -10.72084 2.18750
v 11.36771 -10.29157 2.18750
v 12.12742 -9.51466 -0.85000
v 12.85590 -7.74704 -0.85000
v 12.85590 -7.74704 2.18750
v 12.12742 -9.51466 2.18750
v 12.42579 -20.95030 -0.85000
v 12.30537 -21.24247 -0.85000
v 12.30537 -21.24247 2.18750
v 12.42579 -20.95030 2.18750
v 12.40932 -10.72084 -0.85000
v 12.64118 -10.15827 -0.85000
v 12.64118 -10.15827 2.18750
v 12.40932 -10.72084 2.18750
v 13.78118 -21.50889 -0.85000
v 12.42579 -20.95030 -0.85000
v 12.42579 -20.95030 2.18750
v 13.78118 -21.50889 2.18750
v 15.09591 -14.47140 -0.85000
v 12.42579 -20.95030 -0.85000
v 12.42579 -20.95030 2.18750
v 15.09591 -14.47140 2.18750
v 12.45605 -9.26823 -0.85000
v 13.05001 -7.82704 -0.85000
v 13.05001 -7.82704 2.18750
v 12.45605 -9.26823 2.18750
v 12.63325 -7.65528 -0.85000
v 13.39721 -5.80157 -0.85000
v 13.39721 -5.80157 2.18750
v 12.63325 -7.65528 2.18750
v 12.85590 -7.74704 -0.85000
v 12.63325 -7.65528 -0.85000
v 12.63325 -7.65528 2.18750
v 12.85590 -7.74704 2.18750
v 12.75360 -4.22618 -0.85000
v 14.49354 -4.94325 -0.85000
v 14.49354 -4.94325 2.18750
v 12.75360 -4.22618 2.18750
v 13.05001 -7.82704 -0.85000
v 12.85590 -7.74704 -0.85000
v 12.85590 -7.74704 2.18750
v 13.05001 -7.82704 2.18750
v 16.10206 -23.14125 -0.85000
v 13.07109 -21.89211 -0.85000
v 13.07109 -21.89211 2.18750
v 16.10206 -23.14125 2.18750
v 13.62036 -13.39975 -0.85000
v 13.45706 -13.79599 -0.85000
v 13.45706 -13.79599 2.18750
v 13.62036 -13.39975 2.18750
v 13.45706 -13.79599 -0.85000
v 13.75173 -13.91743 -0.85000
v 13.75173 -13.91743 2.18750
v 13.45706 -13.79599 2.18750
v 13.91337 -6.01429 -0.85000
v 13.47860 -5.83511 -0.85000
v 13.47860 -5.83511 2.18750
v 13.91337 -6.01429 2.18750
v 13.47860 -5.83511 -0.85000
v 14.12527 -4.26601 -0.85000
v 14.12527 -4.26601 2.18750
v 13.47860 -5.83511 2.18750
v 13.48296 -7.05865 -0.85000
v 13.91337 -6.01429 -0.85000
v 13.91337 -6.01429 2.18750
v 13.48296 -7.05865 2.18750
v 13.91503 -13.52119 -0.85000
v 13.62036 -13.39975 -0.85000
v 13.62036 -13.39975 2.18750
v 13.91503 -13.52119 2.18750
v 13.75173 -13.91743 -0.85000
v 13.91503 -13.52119 -0.85000
v 13.91503 -13.52119 2.18750
v 13.75173 -13.91743 2.18750
v 13.75173 -13.91743 -0.85000
v 15.09591 -14.47140 -0.85000
v 15.09591 -14.47140 2.18750
v 13.75173 -13.91743 2.18750
v 16.24172 -14.48008 -0.85000
v 13.91503 -13.52119 -0.85000
v 13.91503 -13.52119 2.18750
v 16.24172 -14.48008 2.18750
v 14.12527 -4.26601 -0.85000
v 14.30106 -4.33846 -0.85000
v 14.30106 -4.33846 2.18750
v 14.12527 -4.26601 2.18750
v 15.06717 0.04467 -0.85000
v 14.19538 -2.07069 -0.85000
v 14.19538 -2.07069 2.18750
v 15.06717 0.04467 2.18750
v 14.30106 -4.33846 -0.85000
v 14.75640 -3.23361 -0.85000
v 14.75640 -3.23361 2.18750
v 14.30106 -4.33846 2.18750
v 14.75640 -3.23361 -0.85000
v 14.95454 -2.75283 -0.85000
v 14.95454 -2.75283 -0.08750
v 14.75640 -3.23361 -0.08750
v 14.75640 -3.23361 1.92250
v 14.95454 -2.75283 1.92250
v 14.95454 -2.75283 2.18750
v 14.75640 -3.23361 2.18750
v 14.95454 -2.75283 -0.85000
v 15.21445 -2.12218 -0.85000
v 15.21445 -2.12218 2.18750
v 14.95454 -2.75283 2.18750
v 14.51741 -4.88531 -0.85000
v 14.67740 -4.49712 -0.85000
v 14.67740 -4.49712 2.18750
v 14.51741 -4.88531 2.18750
v 15.41888 -12.93535 -0.85000
v 14.53142 -12.56961 -0.85000
v 14.53142 -12.56961 2.18750
v 15.41888 -12.93535 2.18750
v 16.58335 -22.05798 -0.85000
v 14.68765 -21.27672 -0.85000
v 14.68765 -21.27672 2.18750
v 16.58335 -22.05798 2.18750
v 14.83122 -11.26472 -0.85000
v 15.92210 -11.71430 -0.85000
v 15.92210 -11.71430 2.18750
v 14.83122 -11.26472 2.18750
v 14.95255 -10.97032 -0.85000
v 14.83122 -11.26472 -0.85000
v 14.83122 -11.26472 2.18750
v 14.95255 -10.97032 2.18750
v 18.59739 -12.47245 -0.85000
v 14.95255 -10.97032 -0.85000
v 14.95255 -10.97032 2.18750
v 18.59739 -12.47245 2.18750
v 15.21445 -2.12218 -0.85000
v 16.65986 -2.71787 -0.85000
v 16.65986 -2.71787 2.18750
v 15.21445 -2.12218 2.18750
v 15.92210 -11.71430 -0.85000
v 15.41888 -12.93535 -0.85000
v 15.41888 -12.93535 2.18750
v 15.92210 -11.71430 2.18750
v 15.98039 -13.22592 -0.85000
v 18.45072 -14.24401 -0.85000
v 18.45072 -14.24401 2.18750
v 15.98039 -13.22592 2.18750
v 16.49311 -3.12247 -0.85000
v 18.50852 -3.95307 -0.85000
v 18.50852 -3.95307 2.18750
v 16.49311 -3.12247 2.18750
v 16.65986 -2.71787 -0.85000
v 16.49311 -3.12247 -0.85000
v 16.49311 -3.12247 2.18750
v 16.65986 -2.71787 2.18750
v 19.77441 -16.29825 -0.85000
v 17.06899 -15.18328 -0.85000
v 17.06899 -15.18328 2.18750
v 19.77441 -16.29825 2.18750
v 17.06899 -15.18328 -0.85000
v 16.77985 -15.06412 -0.85000
v 16.77985 -15.06412 -0.84750
v 17.06899 -15.18328 -0.84750
v 17.06899 -15.18328 1.59250
v 16.77985 -15.06412 1.59250
v 16.77985 -15.06412 2.18750
v 17.06899 -15.18328 2.18750
v 17.18152 -6.48331 -0.85000
v 17.65862 -6.67994 -0.85000
v 17.65862 -6.67994 2.18750
v 17.18152 -6.48331 2.18750
v 17.41710 -5.91169 -0.85000
v 17.18152 -6.48331 -0.85000
v 17.18152 -6.48331 2.18750
v 17.41710 -5.91169 2.18750
v 17.44336 -18.82722 -0.85000
v 18.46594 -16.34598 -0.85000
v 18.46594 -16.34598 2.18750
v 17.44336 -18.82722 2.18750
v 17.65862 -6.67994 -0.85000
v 18.77025 -7.13807 -0.85000
v 18.77025 -7.13807 2.18750
v 17.65862 -6.67994 2.18750
v 18.74266 -4.04957 -0.85000
v 18.70646 -4.13740 -0.85000
v 18.70646 -4.13740 2.18750
v 18.74266 -4.04957 2.18750
v 18.70646 -4.13740 -0.85000
v 18.37496 -4.94177 -0.85000
v 18.37496 -4.94177 0.10250
v 18.70646 -4.13740 0.10250
v 18.70646 -4.13740 0.96250
v 18.37496 -4.94177 0.96250
v 18.37496 -4.94177 2.18750
v 18.70646 -4.13740 2.18750
v 18.37496 -4.94177 -0.85000
v 17.65862 -6.67994 -0.85000
v 17.65862 -6.67994 2.18750
v 18.37496 -4.94177 2.18750
v 17.66174 -6.82706 -0.85000
v 18.71888 -7.26274 -0.85000
v 18.71888 -7.26274 2.18750
v 17.66174 -6.82706 2.18750
v 17.92558 -24.01894 -0.85000
v 17.80054 -23.96741 -0.85000
v 17.80054 -23.96741 2.18750
v 17.92558 -24.01894 2.18750
v 18.60405 -22.01774 -0.85000
v 17.80054 -23.96741 -0.85000
v 17.80054 -23.96741 2.18750
v 18.60405 -22.01774 2.18750
v 17.92558 -24.01894 -0.85000
v 18.37955 -22.91740 -0.85000
v 18.37955 -22.91740 2.18750
v 17.92558 -24.01894 2.18750
v 18.14696 -21.54265 -0.85000
v 19.09187 -19.24989 -0.85000
v 19.09187 -19.24989 2.18750
v 18.14696 -21.54265 2.18750
v 19.94817 1.49613 -0.85000
v 18.24132 -2.64545 -0.85000
v 18.24132 -2.64545 2.18750
v 19.94817 1.49613 2.18750
v 18.50852 -3.95307 -0.85000
v 18.47232 -4.04090 -0.85000
v 18.47232 -4.04090 2.18750
v 18.50852 -3.95307 2.18750
v 18.47232 -4.04090 -0.85000
v 18.40745 -4.19832 -0.85000
v 18.40745 -4.19832 0.10250
v 18.47232 -4.04090 0.10250
v 18.47232 -4.04090 0.96250
v 18.40745 -4.19832 0.96250
v 18.40745 -4.19832 2.18750
v 18.47232 -4.04090 2.18750
v 18.50852 -3.95307 -0.85000
v 18.74266 -4.04957 -0.85000
v 18.74266 -4.04957 2.18750
v 18.50852 -3.95307 2.18750
v 20.49067 -7.95965 -0.85000
v 18.62598 -12.48423 -0.85000
v 18.62598 -12.48423 2.18750
v 20.49067 -7.95965 2.18750
v 18.66078 -3.58362 -0.85000
v 19.98879 -4.13092 -0.85000
v 19.98879 -4.13092 2.18750
v 18.66078 -3.58362 2.18750
v 18.71888 -7.26274 -0.85000
v 18.77025 -7.13807 -0.85000
v 18.77025 -7.13807 2.18750
v 18.71888 -7.26274 2.18750
v 19.56470 -7.57804 -0.85000
v 19.75993 -7.65850 -0.85000
v 19.75993 -7.65850 2.18750
v 19.56470 -7.57804 2.18750
v 20.07364 -6.34312 -0.85000
v 19.56470 -7.57804 -0.85000
v 19.56470 -7.57804 2.18750
v 20.07364 -6.34312 2.18750
v 19.75993 -7.65850 -0.85000
v 20.46208 -7.94787 -0.85000
v 20.46208 -7.94787 2.18750
v 19.75993 -7.65850 2.18750
v 20.40755 -6.08708 -0.85000
v 19.75993 -7.65850 -0.85000
v 19.75993 -7.65850 2.18750
v 20.40755 -6.08708 2.18750
v 19.78360 -5.82994 -0.85000
v 20.40755 -6.08708 -0.85000
v 20.40755 -6.08708 2.18750
v 19.78360 -5.82994 2.18750
v 19.98879 -4.13092 -0.85000
v 20.12960 -3.78926 -0.85000
v 20.12960 -3.78926 2.18750
v 19.98879 -4.13092 2.18750
v 20.12960 -3.78926 -0.85000
v 21.17670 -4.22079 -0.85000
v 21.17670 -4.22079 2.18750
v 20.12960 -3.78926 2.18750
v -7.75333 5.21511 -0.85000
v 21.17670 5.21511 -0.85000
v 21.17670 -25.46583 -0.85000
v -7.75333 -25.46583 -0.85000
v -7.75333 -25.46583 2.18750
v 21.17670 -25.46583 2.18750
v 21.17670 5.21511 2.18750
v -7.75333 5.21511 2.18750
f 1 2 3
f 1 3 4
f 5 6 7
f 5 7 8
f 9 10 11
f 9 11 12
f 13 14 15
f 13 15 16
f 17 18 19
f 17 19 20
f 21 22 23
f 21 23 24
f 25 26 27
f 25 27 28
f 29 30 31
f 29 31 32
f 33 34 35
f 33 35 36
f 37 38 39
f 37 39 40
f 41 42 43
f 41 43 44
f 45 46 47
f 45 47 48
f 49 50 51
f 49 51 52
f 53 54 55
f 53 55 56
f 57 58 59
f 57 59 60
f 61 62 63
f 61 63 64
f 65 66 67
f 65 67 68
f 69 70 71
f 69 71 72
f 73 74 75
f 73 75 76
f 77 78 79
f 77 79 80
f 81 82 83
f 81 83 84
f 85 86 87
f 85 87 88
f 89 90 91
f 89 91 92
f 93 94 95
f 93 95 96
f 97 98 99
f 97 99 100
f 101 102 103
f 101 103 104
f 105 106 107
f 105 107 108
f 109 110 111
f 109 111 112
f 113 114 115
f 113 115 116
f 117 118 119
f 117 119 120
f 121 122 123
f 121 123 124
f 125 126 127
f 125 127 128
f 129 130 131
f 129 131 132
f 133 134 135
f 133 135 136
f 137 138 139
f 137 139 140
f 141 142 143
f 141 143 144
f 145 146 147
f 145 147 148
f 149 150 151
f 149 151 152
f 153 154 155
f 153 155 156
f 157 158 159
f 157 159 160
f 161 162 163
f 161 163 164
f 165 166 167
f 165 167 168
f 169 170 171
f 169 171 172
f 173 174 175
f 173 175 176
f 177 178 179
f 177 179 180
f 181 182 183
f 181 183 184
f 185 186 187
f 185 187 188
f 189 190 191
f 189 191 192
f 193 194 195
f 193 195 196
f 197 198 199
f 197 199 200
f 201 202 203
f 201 203 204
f 205 206 207
f 205 207 208
f 209 210 211
f 209 211 212
f 213 214 215
f 213 215 216
f 217 218 219
f 217 219 220
f 221 222 223
f 221 223 224
f 225 226 227
f 225 227 228
f 229 230 231
f 229 231 232
f 233 234 235
f 233 235 236
f 237 238 239
f 237 239 240
f 241 242 243
f 241 243 244
f 245 246 247
f 245 247 248
f 249 250 251
f 249 251 252
f 253 254 255
f 253 255 256
f 257 258 259
f 257 259 260
f 261 262 263
f 261 263 264
f 265 266 267
f 265 267 268
f 269 270 271
f 269 271 272
f 273 274 275
f 273 275 276
f 277 278 279
f 277 279 280
f 281 282 283
f 281 283 284
f 285 286 287
f 285 287 288
f 289 290 291
f 289 291 292
f 293 294 295
f 293 295 296
f 297 298 299
f 297 299 300
f 301 302 303
f 301 303 304
f 305 306 307
f 305 307 308
f 309 310 311
f 309 311 312
f 313 314 315
f 313 315 316
f 317 318 319
f 317 319 320
f 321 322 323
f 321 323 324
f 325 326 327
f 325 327 328
f 329 330 331
f 329 331 332
f 333 334 335
f 333 335 336
f 337 338 339
f 337 339 340
f 341 342 343
f 341 343 344
f 345 346 347
f 345 347 348
f 349 350 351
f 349 351 352
f 353 354 355
f 353 355 356
f 357 358 359
f 357 359 360
f 361 362 363
f 361 363 364
f 365 366 367
f 365 367 368
f 369 370 371
f 369 371 372
f 373 374 375
f 373 375 376
f 377 378 379
f 377 379 380
f 381 382 383
f 381 383 384
f 385 386 387
f 385 387 388
f 389 390 391
f 389 391 392
f 393 394 395
f 393 395 396
f 397 398 399
f 397 399 400
f 401 402 403
f 401 403 404
f 405 406 407
f 405 407 408
f 409 410 411
f 409 411 412
f 413 414 415
f 413 415 416
f 417 418 419
f 417 419 420
f 421 422 423
f 421 423 424
f 425 426 427
f 425 427 428
f 429 430 431
f 429 431 432
f 433 434 435
f 433 435 436
f 437 438 439
f 437 439 440
f 441 442 443
f 441 443 444
f 445 446 447
f 445 447 448
f 449 450 451
f 449 451 452
f 453 454 455
f 453 455 456
f 457 458 459
f 457 459 460
f 461 462 463
f 461 463 464
f 465 466 467
f 465 467 468
f 469 470 471
f 469 471 472
f 473 474 475
f 473 475 476
f 477 478 479
f 477 479 480
f 481 482 483
f 481 483 484
f 485 486 487
f 485 487 488
f 489 490 491
f 489 491 492
f 493 494 495
f 493 495 496
f 497 498 499
f 497 499 500
f 501 502 503
f 501 503 504
f 505 506 507
f 505 507 508
f 509 510 511
f 509 511 512
f 513 514 515
f 513 515 516
f 517 518 519
f 517 519 520
f 521 522 523
f 521 523 524
f 525 526 527
f 525 527 528
f 529 530 531
f 529 531 532
f 533 534 535
f 533 535 536
f 537 538 539
f 537 539 540
f 541 542 543
f 541 543 544
f 545 546 547
f 545 547 548
f 549 550 551
f 549 551 552
f 553 554 555
f 553 555 556
f 557 558 559
f 557 559 560
f 561 562 563
f 561 563 564
f 565 566 567
f 565 567 568
f 569 570 571
f 569 571 572
f 573 574 575
f 573 575 576
f 577 578 579
f 577 579 580
f 581 582 583
f 581 583 584
f 585 586 587
f 585 587 588
f 589 590 591
f 589 591 592
f 593 594 595
f 593 595 596
f 597 598 599
f 597 599 600
f 601 602 603
f 601 603 604
f 605 606 607
f 605 607 608
f 609 610 611
f 609 611 612
f 613 614 615
f 613 615 616
f 617 618 619
f 617 619 620
f 621 622 623
f 621 623 624
f 625 626 627
f 625 627 628
f 629 630 631
f 629 631 632
f 633 634 635
f 633 635 636
f 637 638 639
f 637 639 640
f 641 642 643
f 641 643 644
f 645 646 647
f 645 647 648
f 649 650 651
f 649 651 652
f 653 654 655
f 653 655 656
f 657 658 659
f 657 659 660
f 661 662 663
f 661 663 664
f 665 666 667
f 665 667 668
f 669 670 671
f 669 671 672
f 673 674 675
f 673 675 676
f 677 678 679
f 677 679 680
f 681 682 683
f 681 683 684
f 685 686 687
f 685 687 688
f 689 690 691
f 689 691 692
f 693 694 695
f 693 695 696
f 697 698 699
f 697 699 700
f 701 702 703
f 701 703 704
f 705 706 707
f 705 707 708
f 709 710 711
f 709 711 712
f 713 714 715
f 713 715 716
f 717 718 719
f 717 719 720
f 721 722 723
f 721 723 724
f 725 726 727
f 725 727 728
f 729 730 731
f 729 731 732
f 733 734 735
f 733 735 736
f 737 738 739
f 737 739 740
f 741 742 743
f 741 743 744
f 745 746 747
f 745 747 748
f 749 750 751
f 749 751 752
f 753 754 755
f 753 755 756
