# White-box proxy for ALCC2ProxyMesh, built from LCC Studio Space Recognition output.
# Y is pre-negated: Unreal's OBJ import negates Y again, landing this in the LCC frame.
# Place at the splat transform with POSITIVE uniform scale 100.
v -23.40854 -19.98148 0.09060
v -21.37951 -18.81191 0.09060
v -21.37951 -18.81191 2.19990
v -23.40854 -19.98148 2.19990
v -22.46585 -36.12326 0.09060
v -21.43135 -37.91797 0.09060
v -21.43135 -37.91797 2.19990
v -22.46585 -36.12326 2.19990
v -22.40831 -38.96645 0.09060
v -21.46044 -38.42009 0.09060
v -21.46044 -38.42009 2.19990
v -22.40831 -38.96645 2.19990
v -22.08126 -20.59126 0.09060
v -19.27782 -25.45482 0.09060
v -19.27782 -25.45482 2.19990
v -22.08126 -20.59126 2.19990
v -21.88187 -37.68898 0.09060
v -21.46044 -38.42009 0.09060
v -21.46044 -38.42009 2.19990
v -21.88187 -37.68898 2.19990
v -21.63019 -21.10380 0.09060
v -19.27414 -25.19121 0.09060
v -19.27414 -25.19121 2.19990
v -21.63019 -21.10380 2.19990
v -20.11257 -2.11253 0.09060
v -18.74211 -1.32257 0.09060
v -18.74211 -1.32257 2.19990
v -20.11257 -2.11253 2.19990
v -18.84359 -19.34245 0.09060
v -15.71496 -17.53906 0.09060
v -15.71496 -17.53906 2.19990
v -18.84359 -19.34245 2.19990
v -18.26677 -35.54865 0.09060
v -17.15655 -34.90870 0.09060
v -17.15655 -34.90870 2.19990
v -18.26677 -35.54865 2.19990
v -18.26677 -35.54865 0.09060
v -17.93217 -36.12913 0.09060
v -17.93217 -36.12913 2.19990
v -18.26677 -35.54865 2.19990
v -18.16930 -36.26582 0.09060
v -17.93217 -36.12913 0.09060
v -17.93217 -36.12913 2.19990
v -18.16930 -36.26582 2.19990
v -17.78551 -0.79093 0.09060
v -17.28929 -0.50490 0.09060
v -17.28929 -0.50490 2.19990
v -17.78551 -0.79093 2.19990
v -17.78551 -0.79093 0.09060
v -11.81828 -11.14320 0.09060
v -11.81828 -11.14320 2.19990
v -17.78551 -0.79093 2.19990
v -17.28929 -0.50490 0.09060
v -16.74365 -1.45151 0.09060
v -16.74365 -1.45151 2.19990
v -17.28929 -0.50490 2.19990
v -17.22788 -37.01160 0.09060
v -16.47710 -36.57883 0.09060
v -16.47710 -36.57883 2.19990
v -17.22788 -37.01160 2.19990
v -17.15655 -34.90870 0.09060
v -16.28314 -36.42394 0.09060
v -16.28314 -36.42394 2.19990
v -17.15655 -34.90870 2.19990
v -16.93309 -18.52804 0.09060
v -15.06100 -17.44893 0.09060
v -15.06100 -17.44893 2.19990
v -16.93309 -18.52804 2.19990
v -15.76887 -25.44478 0.09060
v -15.65851 -25.63624 0.09060
v -15.65851 -25.63624 2.19990
v -15.76887 -25.44478 2.19990
v -15.35630 -25.73852 0.09060
v -15.16902 -26.06341 0.09060
v -15.16902 -26.06341 2.19990
v -15.35630 -25.73852 2.19990
v -15.16902 -26.06341 0.09060
v -14.70958 -26.86047 0.09060
v -14.70958 -26.86047 0.23490
v -15.16902 -26.06341 0.23490
v -15.16902 -26.06341 1.12490
v -14.70958 -26.86047 1.12490
v -14.70958 -26.86047 2.19990
v -15.16902 -26.06341 2.19990
v -14.70958 -26.86047 0.09060
v -13.62908 -28.73499 0.09060
v -13.62908 -28.73499 2.19990
v -14.70958 -26.86047 2.19990
v -15.27556 -4.72369 0.09060
v -13.88981 -7.12778 0.09060
v -13.88981 -7.12778 2.19990
v -15.27556 -4.72369 2.19990
v -15.18807 -16.02895 0.09060
v -14.80152 -15.80613 0.09060
v -14.80152 -15.80613 2.19990
v -15.18807 -16.02895 2.19990
v -14.98714 4.30305 0.09060
v -13.24079 5.30968 0.09060
v -13.24079 5.30968 2.19990
v -14.98714 4.30305 2.19990
v -13.68545 -14.80833 0.09060
v -12.50238 -16.86077 0.09060
v -12.50238 -16.86077 2.19990
v -13.68545 -14.80833 2.19990
v -13.53777 -14.65298 0.09060
v -12.82475 -15.88996 0.09060
v -12.82475 -15.88996 2.19990
v -13.53777 -14.65298 2.19990
v -13.53735 3.86278 0.09060
v -12.81528 4.27900 0.09060
v -12.81528 4.27900 2.19990
v -13.53735 3.86278 2.19990
v -12.96777 6.56290 0.09060
v -11.89158 4.69586 0.09060
v -11.89158 4.69586 2.19990
v -12.96777 6.56290 2.19990
v -11.89158 4.69586 0.09060
v -11.40717 3.85548 0.09060
v -11.40717 3.85548 0.73490
v -11.89158 4.69586 0.73490
v -11.89158 4.69586 1.95490
v -11.40717 3.85548 1.95490
v -11.40717 3.85548 2.19990
v -11.89158 4.69586 2.19990
v -11.40717 3.85548 0.09060
v -10.05101 1.50274 0.09060
v -10.05101 1.50274 2.19990
v -11.40717 3.85548 2.19990
v -12.96777 6.56290 0.09060
v -11.99310 7.12472 0.09060
v -11.99310 7.12472 2.19990
v -12.96777 6.56290 2.19990
v -11.99310 7.12472 0.09060
v -11.15272 7.60913 0.09060
v -11.15272 7.60913 0.71490
v -11.99310 7.12472 0.71490
v -11.99310 7.12472 2.05490
v -11.15272 7.60913 2.05490
v -11.15272 7.60913 2.19990
v -11.99310 7.12472 2.19990
v -11.15272 7.60913 0.09060
v -6.49162 10.29587 0.09060
v -6.49162 10.29587 2.19990
v -11.15272 7.60913 2.19990
v -6.49162 10.29587 0.09060
v -5.64257 10.78528 0.09060
v -5.64257 10.78528 0.70490
v -6.49162 10.29587 0.70490
v -6.49162 10.29587 1.98490
v -5.64257 10.78528 1.98490
v -5.64257 10.78528 2.19990
v -6.49162 10.29587 2.19990
v -5.64257 10.78528 0.09060
v -5.00145 11.15483 0.09060
v -5.00145 11.15483 2.19990
v -5.64257 10.78528 2.19990
v -5.00145 11.15483 0.09060
v -4.19572 11.61926 0.09060
v -4.19572 11.61926 0.68490
v -5.00145 11.15483 0.68490
v -5.00145 11.15483 1.98490
v -4.19572 11.61926 1.98490
v -4.19572 11.61926 2.19990
v -5.00145 11.15483 2.19990
v -4.19572 11.61926 0.09060
v -0.49911 13.75006 0.09060
v -0.49911 13.75006 2.19990
v -4.19572 11.61926 2.19990
v -12.50238 -16.86077 0.09060
v -8.83562 -14.74718 0.09060
v -8.83562 -14.74718 2.19990
v -12.50238 -16.86077 2.19990
v -11.32667 -21.32317 0.09060
v -9.06391 -20.01888 0.09060
v -9.06391 -20.01888 2.19990
v -11.32667 -21.32317 2.19990
v -11.03032 -27.79587 0.09060
v -6.37849 -25.11448 0.09060
v -6.37849 -25.11448 2.19990
v -11.03032 -27.79587 2.19990
v -10.92092 1.15850 0.09060
v -9.45047 -1.39251 0.09060
v -9.45047 -1.39251 2.19990
v -10.92092 1.15850 2.19990
v -9.45047 -1.39251 0.09060
v -9.26820 -1.70873 0.09060
v -9.26820 -1.70873 0.56490
v -9.45047 -1.39251 0.56490
v -9.45047 -1.39251 1.91490
v -9.26820 -1.70873 1.91490
v -9.26820 -1.70873 2.19990
v -9.45047 -1.39251 2.19990
v -10.83127 -16.30894 0.09060
v -8.65761 -15.05601 0.09060
v -8.65761 -15.05601 2.19990
v -10.83127 -16.30894 2.19990
v -10.58907 -13.72606 0.09060
v -9.65979 -13.19041 0.09060
v -9.65979 -13.19041 2.19990
v -10.58907 -13.72606 2.19990
v -9.95292 17.42181 0.09060
v -9.51973 16.67028 0.09060
v -9.51973 16.67028 2.19990
v -9.95292 17.42181 2.19990
v -9.64548 -13.27547 0.09060
v -8.62874 -15.03937 0.09060
v -8.62874 -15.03937 2.19990
v -9.64548 -13.27547 2.19990
v -9.51973 16.67028 0.09060
v -9.06762 16.93088 0.09060
v -9.06762 16.93088 2.19990
v -9.51973 16.67028 2.19990
v -9.47763 16.59725 0.09060
v -8.58928 17.10931 0.09060
v -8.58928 17.10931 2.19990
v -9.47763 16.59725 2.19990
v -9.26820 -1.70873 0.09060
v -9.25520 -1.70124 0.09060
v -9.25520 -1.70124 2.19990
v -9.26820 -1.70873 2.19990
v -9.25520 -1.70124 0.09060
v -8.62275 -1.33669 0.09060
v -8.62275 -1.33669 0.56490
v -9.25520 -1.70124 0.56490
v -9.25520 -1.70124 1.91490
v -8.62275 -1.33669 1.91490
v -8.62275 -1.33669 2.19990
v -9.25520 -1.70124 2.19990
v -8.62275 -1.33669 0.09060
v -8.11618 -1.04469 0.09060
v -8.11618 -1.04469 2.19990
v -8.62275 -1.33669 2.19990
v -8.46022 -14.08885 0.09060
v -7.90329 -13.76782 0.09060
v -7.90329 -13.76782 2.19990
v -8.46022 -14.08885 2.19990
v -8.41093 -1.36523 0.09060
v -7.32974 -3.24093 0.09060
v -7.32974 -3.24093 2.19990
v -8.41093 -1.36523 2.19990
v -7.32974 -3.24093 0.09060
v -6.47078 -4.73110 0.09060
v -6.47078 -4.73110 0.70490
v -7.32974 -3.24093 0.70490
v -7.32974 -3.24093 1.92490
v -6.47078 -4.73110 1.92490
v -6.47078 -4.73110 2.19990
v -7.32974 -3.24093 2.19990
v -6.47078 -4.73110 0.09060
v -5.39395 -6.59924 0.09060
v -5.39395 -6.59924 2.19990
v -6.47078 -4.73110 2.19990
v -7.77424 -27.28062 0.09060
v -6.49144 -26.54119 0.09060
v -6.49144 -26.54119 2.19990
v -7.77424 -27.28062 2.19990
v -6.66064 -7.32938 0.09060
v -5.39395 -6.59924 0.09060
v -5.39395 -6.59924 2.19990
v -6.66064 -7.32938 2.19990
v -6.49944 0.26870 0.09060
v -5.36496 -1.69947 0.09060
v -5.36496 -1.69947 2.19990
v -6.49944 0.26870 2.19990
v -6.33106 -20.99740 0.09060
v -6.20313 -21.21935 0.09060
v -6.20313 -21.21935 2.19990
v -6.33106 -20.99740 2.19990
v -6.20313 -21.21935 0.09060
v -5.49576 -22.44653 0.09060
v -5.49576 -22.44653 2.19990
v -6.20313 -21.21935 2.19990
v -6.20313 -21.21935 0.09060
v -3.75728 -19.80952 0.09060
v -3.75728 -19.80952 2.19990
v -6.20313 -21.21935 2.19990
v -6.11767 -28.38940 0.09060
v -4.11776 -27.23662 0.09060
v -4.11776 -27.23662 2.19990
v -6.11767 -28.38940 2.19990
v -5.39395 -6.59924 0.09060
v -2.60749 -4.99307 0.09060
v -2.60749 -4.99307 2.19990
v -5.39395 -6.59924 2.19990
v -4.08919 0.73559 0.09060
v -0.43942 2.83937 0.09060
v -0.43942 2.83937 2.19990
v -4.08919 0.73559 2.19990
v -4.08919 0.73559 0.09060
v -3.36257 -0.52499 0.09060
v -3.36257 -0.52499 2.19990
v -4.08919 0.73559 2.19990
v -3.36257 -0.52499 0.09060
v -2.49862 -2.02382 0.09060
v -2.49862 -2.02382 0.74490
v -3.36257 -0.52499 0.74490
v -3.36257 -0.52499 1.82490
v -2.49862 -2.02382 1.82490
v -2.49862 -2.02382 2.19990
v -3.36257 -0.52499 2.19990
v -2.49862 -2.02382 0.09060
v -1.37613 -3.97117 0.09060
v -1.37613 -3.97117 2.19990
v -2.49862 -2.02382 2.19990
v -3.75728 -19.80952 0.09060
v -3.06571 -21.00930 0.09060
v -3.06571 -21.00930 2.19990
v -3.75728 -19.80952 2.19990
v -3.70794 -22.41916 0.09060
v -2.31353 -21.61541 0.09060
v -2.31353 -21.61541 2.19990
v -3.70794 -22.41916 2.19990
v -3.67938 -19.76462 0.09060
v -3.14748 -20.68740 0.09060
v -3.14748 -20.68740 2.19990
v -3.67938 -19.76462 2.19990
v -2.60749 -4.99307 0.09060
v -1.87772 -6.25912 0.09060
v -1.87772 -6.25912 2.19990
v -2.60749 -4.99307 2.19990
v -2.60749 -4.99307 0.09060
v -2.21782 -4.76846 0.09060
v -2.21782 -4.76846 2.19990
v -2.60749 -4.99307 2.19990
v -2.35286 -4.53417 0.09060
v -2.21782 -4.76846 0.09060
v -2.21782 -4.76846 2.19990
v -2.35286 -4.53417 2.19990
v -2.35286 -4.53417 0.09060
v -1.60111 -4.10085 0.09060
v -1.60111 -4.10085 2.19990
v -2.35286 -4.53417 2.19990
v -2.33587 -5.15523 0.09060
v -1.80743 -6.07200 0.09060
v -1.80743 -6.07200 2.19990
v -2.33587 -5.15523 2.19990
v -2.31353 -21.61541 0.09060
v -1.38072 -23.23370 0.09060
v -1.38072 -23.23370 2.19990
v -2.31353 -21.61541 2.19990
v -2.22926 -21.97822 0.09060
v -1.53288 -23.18633 0.09060
v -1.53288 -23.18633 2.19990
v -2.22926 -21.97822 2.19990
v -1.60111 -4.10085 0.09060
v -1.37613 -3.97117 0.09060
v -1.37613 -3.97117 2.19990
v -1.60111 -4.10085 2.19990
v -1.60111 -4.10085 0.09060
v -0.92233 -5.27842 0.09060
v -0.92233 -5.27842 2.19990
v -1.60111 -4.10085 2.19990
v -1.37613 -3.97117 0.09060
v -0.80205 -4.96713 0.09060
v -0.80205 -4.96713 2.19990
v -1.37613 -3.97117 2.19990
v -1.24470 -15.54731 0.09060
v 1.01417 -14.24526 0.09060
v 1.01417 -14.24526 2.19990
v -1.24470 -15.54731 2.19990
v -1.24470 -15.54731 0.09060
v 2.43568 -21.93223 0.09060
v 2.43568 -21.93223 2.19990
v -1.24470 -15.54731 2.19990
v -0.99072 -2.88846 0.09060
v 0.22142 -2.18976 0.09060
v 0.22142 -2.18976 2.19990
v -0.99072 -2.88846 2.19990
v -0.96935 -26.95230 0.09060
v 0.76969 -25.94988 0.09060
v 0.76969 -25.94988 2.19990
v -0.96935 -26.95230 2.19990
v -0.87091 -27.19263 0.09060
v 1.59090 -25.77360 0.09060
v 1.59090 -25.77360 2.19990
v -0.87091 -27.19263 2.19990
v -0.80205 -4.96713 0.09060
v -0.56460 -4.83026 0.09060
v -0.56460 -4.83026 2.19990
v -0.80205 -4.96713 2.19990
v -0.49911 13.75006 0.09060
v 2.31858 8.86178 0.09060
v 2.31858 8.86178 2.19990
v -0.49911 13.75006 2.19990
v -0.43942 2.83937 0.09060
v -0.07097 2.20015 0.09060
v -0.07097 2.20015 2.19990
v -0.43942 2.83937 2.19990
v -0.43942 2.83937 0.09060
v 0.78019 3.54238 0.09060
v 0.78019 3.54238 2.19990
v -0.43942 2.83937 2.19990
v -0.24045 7.38671 0.09060
v 0.11910 7.59396 0.09060
v 0.11910 7.59396 2.19990
v -0.24045 7.38671 2.19990
v 0.11910 7.59396 0.09060
v 1.86051 8.59774 0.09060
v 1.86051 8.59774 0.10490
v 0.11910 7.59396 0.10490
v 0.11910 7.59396 1.22490
v 1.86051 8.59774 1.22490
v 1.86051 8.59774 2.19990
v 0.11910 7.59396 2.19990
v 1.86051 8.59774 0.09060
v 2.31858 8.86178 0.09060
v 2.31858 8.86178 2.19990
v 1.86051 8.59774 2.19990
v -0.24045 7.38671 0.09060
v -0.11809 7.17445 0.09060
v -0.11809 7.17445 2.19990
v -0.24045 7.38671 2.19990
v -0.11809 7.17445 0.09060
v 0.26644 6.50734 0.09060
v 0.26644 6.50734 0.83490
v -0.11809 7.17445 0.83490
v -0.11809 7.17445 2.12490
v 0.26644 6.50734 2.12490
v 0.26644 6.50734 2.19990
v -0.11809 7.17445 2.19990
v 0.26644 6.50734 0.09060
v 0.56108 5.99618 0.09060
v 0.56108 5.99618 2.19990
v 0.26644 6.50734 2.19990
v 0.56108 5.99618 0.09060
v 0.96559 5.29442 0.09060
v 0.96559 5.29442 0.75490
v 0.56108 5.99618 0.75490
v 0.56108 5.99618 2.07490
v 0.96559 5.29442 2.07490
v 0.96559 5.29442 2.19990
v 0.56108 5.99618 2.19990
v 0.96559 5.29442 0.09060
v 1.67739 4.05954 0.09060
v 1.67739 4.05954 2.19990
v 0.96559 5.29442 2.19990
v 0.22142 -2.18976 0.09060
v 0.47520 -2.63003 0.09060
v 0.47520 -2.63003 2.19990
v 0.22142 -2.18976 2.19990
v 0.41877 -3.78631 0.09060
v 0.97611 -4.75320 0.09060
v 0.97611 -4.75320 2.19990
v 0.41877 -3.78631 2.19990
v 0.78019 3.54238 0.09060
v 1.54990 2.20706 0.09060
v 1.54990 2.20706 2.19990
v 0.78019 3.54238 2.19990
v 0.78019 3.54238 0.09060
v 1.67739 4.05954 0.09060
v 1.67739 4.05954 2.19990
v 0.78019 3.54238 2.19990
v 1.05219 -8.51550 0.09060
v 4.69557 -6.41539 0.09060
v 4.69557 -6.41539 2.19990
v 1.05219 -8.51550 2.19990
v 1.06439 -8.53667 0.09060
v 1.94098 -10.05743 0.09060
v 1.94098 -10.05743 2.19990
v 1.06439 -8.53667 2.19990
v 1.33684 -9.31044 0.09060
v 2.23325 -10.86559 0.09060
v 2.23325 -10.86559 2.19990
v 1.33684 -9.31044 2.19990
v 2.23325 -10.86559 0.09060
v 2.68270 -11.64533 0.09060
v 2.68270 -11.64533 1.30490
v 2.23325 -10.86559 1.30490
v 2.23325 -10.86559 2.18490
v 2.68270 -11.64533 2.18490
v 2.68270 -11.64533 2.19990
v 2.23325 -10.86559 2.19990
v 2.68270 -11.64533 0.09060
v 2.99875 -12.19362 0.09060
v 2.99875 -12.19362 2.19990
v 2.68270 -11.64533 2.19990
v 1.59090 -25.77360 0.09060
v 2.25312 -26.92245 0.09060
v 2.25312 -26.92245 2.19990
v 1.59090 -25.77360 2.19990
v 2.25938 -22.03385 0.09060
v 2.43568 -21.93223 0.09060
v 2.43568 -21.93223 2.19990
v 2.25938 -22.03385 2.19990
v 2.25938 -22.03385 0.09060
v 2.59998 -22.62473 0.09060
v 2.59998 -22.62473 2.19990
v 2.25938 -22.03385 2.19990
v 2.31858 8.86178 0.09060
v 3.29972 7.15964 0.09060
v 3.29972 7.15964 2.19990
v 2.31858 8.86178 2.19990
v 2.50509 4.22776 0.09060
v 3.38854 4.73700 0.09060
v 3.38854 4.73700 2.19990
v 2.50509 4.22776 2.19990
v 2.59998 -22.62473 0.09060
v 4.69227 -21.41870 0.09060
v 4.69227 -21.41870 2.19990
v 2.59998 -22.62473 2.19990
v 4.69227 -21.41870 0.09060
v 5.50667 -20.94927 0.09060
v 5.50667 -20.94927 1.02490
v 4.69227 -21.41870 1.02490
v 4.69227 -21.41870 2.19490
v 5.50667 -20.94927 2.19490
v 5.50667 -20.94927 2.19990
v 4.69227 -21.41870 2.19990
v 5.50667 -20.94927 0.09060
v 9.34471 -18.73695 0.09060
v 9.34471 -18.73695 2.19990
v 5.50667 -20.94927 2.19990
v 9.34471 -18.73695 0.09060
v 10.28906 -18.19261 0.09060
v 10.28906 -18.19261 0.95490
v 9.34471 -18.73695 0.95490
v 9.34471 -18.73695 2.18490
v 10.28906 -18.19261 2.18490
v 10.28906 -18.19261 2.19990
v 9.34471 -18.73695 2.19990
v 10.28906 -18.19261 0.09060
v 11.06267 -17.74669 0.09060
v 11.06267 -17.74669 2.19990
v 10.28906 -18.19261 2.19990
v 2.93553 21.28263 0.09060
v 4.03708 21.91758 0.09060
v 4.03708 21.91758 2.19990
v 2.93553 21.28263 2.19990
v 3.38854 4.73700 0.09060
v 3.58913 4.38900 0.09060
v 3.58913 4.38900 2.19990
v 3.38854 4.73700 2.19990
v 4.71930 -6.45656 0.09060
v 5.26091 -7.39619 0.09060
v 5.26091 -7.39619 2.19990
v 4.71930 -6.45656 2.19990
v 5.00300 -13.49862 0.09060
v 5.92059 -12.96971 0.09060
v 5.92059 -12.96971 2.19990
v 5.00300 -13.49862 2.19990
v 5.11718 1.99557 0.09060
v 5.87256 0.68510 0.09060
v 5.87256 0.68510 2.19990
v 5.11718 1.99557 2.19990
v 5.22801 -11.76819 0.09060
v 5.92059 -12.96971 0.09060
v 5.92059 -12.96971 2.19990
v 5.22801 -11.76819 2.19990
v 5.30935 -6.53991 0.09060
v 7.38024 -10.13261 0.09060
v 7.38024 -10.13261 2.19990
v 5.30935 -6.53991 2.19990
v 5.39057 2.38026 0.09060
v 5.83837 2.63839 0.09060
v 5.83837 2.63839 2.19990
v 5.39057 2.38026 2.19990
v 5.39057 2.38026 0.09060
v 5.64646 1.93634 0.09060
v 5.64646 1.93634 2.19990
v 5.39057 2.38026 2.19990
v 5.64646 1.93634 0.09060
v 6.09426 2.19446 0.09060
v 6.09426 2.19446 2.19990
v 5.64646 1.93634 2.19990
v 5.69356 16.03784 0.09060
v 8.28976 11.53383 0.09060
v 8.28976 11.53383 2.19990
v 5.69356 16.03784 2.19990
v 5.81154 15.44264 0.09060
v 7.79846 11.99563 0.09060
v 7.79846 11.99563 2.19990
v 5.81154 15.44264 2.19990
v 5.83837 2.63839 0.09060
v 6.09426 2.19446 0.09060
v 6.09426 2.19446 2.19990
v 5.83837 2.63839 2.19990
v 5.87256 0.68510 0.09060
v 6.92297 1.29057 0.09060
v 6.92297 1.29057 2.19990
v 5.87256 0.68510 2.19990
v 6.32048 -9.43367 0.09060
v 7.01162 -10.63269 0.09060
v 7.01162 -10.63269 2.19990
v 6.32048 -9.43367 2.19990
v 6.90474 8.25523 0.09060
v 7.34185 8.50719 0.09060
v 7.34185 8.50719 2.19990
v 6.90474 8.25523 2.19990
v 7.01162 -10.63269 0.09060
v 7.53407 -10.33155 0.09060
v 7.53407 -10.33155 2.19990
v 7.01162 -10.63269 2.19990
v 7.01162 -10.63269 0.09060
v 8.22904 -12.74474 0.09060
v 8.22904 -12.74474 2.19990
v 7.01162 -10.63269 2.19990
v 8.28976 11.53383 0.09060
v 11.05527 13.12791 0.09060
v 11.05527 13.12791 2.19990
v 8.28976 11.53383 2.19990
v 9.29350 4.22352 0.09060
v 10.48524 4.91045 0.09060
v 10.48524 4.91045 2.19990
v 9.29350 4.22352 2.19990
v 9.29350 4.22352 0.09060
v 9.97818 3.03570 0.09060
v 9.97818 3.03570 2.19990
v 9.29350 4.22352 2.19990
v 9.79516 -13.04839 0.09060
v 10.91132 -14.98478 0.09060
v 10.91132 -14.98478 2.19990
v 9.79516 -13.04839 2.19990
v 9.82995 -15.60810 0.09060
v 10.91132 -14.98478 0.09060
v 10.91132 -14.98478 2.19990
v 9.82995 -15.60810 2.19990
v 9.82995 -15.60810 0.09060
v 9.84743 -15.63842 0.09060
v 9.84743 -15.63842 2.19990
v 9.82995 -15.60810 2.19990
v 9.84743 -15.63842 0.09060
v 10.32685 -16.47014 0.09060
v 10.32685 -16.47014 0.98490
v 9.84743 -15.63842 0.98490
v 9.84743 -15.63842 2.18490
v 10.32685 -16.47014 2.18490
v 10.32685 -16.47014 2.19990
v 9.84743 -15.63842 2.19990
v 10.32685 -16.47014 0.09060
v 11.06267 -17.74669 0.09060
v 11.06267 -17.74669 2.19990
v 10.32685 -16.47014 2.19990
v 9.97818 3.03570 0.09060
v 10.85587 3.54162 0.09060
v 10.85587 3.54162 2.19990
v 9.97818 3.03570 2.19990
v 10.26552 -0.49583 0.09060
v 10.96529 -1.70983 0.09060
v 10.96529 -1.70983 2.19990
v 10.26552 -0.49583 2.19990
v -23.40854 21.91758 0.09060
v 11.06267 21.91758 0.09060
v 11.06267 -38.96645 0.09060
v -23.40854 -38.96645 0.09060
v -23.40854 -38.96645 2.19990
v 11.06267 -38.96645 2.19990
v 11.06267 21.91758 2.19990
v -23.40854 21.91758 2.19990
f 1 2 3
f 1 3 4
f 5 6 7
f 5 7 8
f 9 10 11
f 9 11 12
f 13 14 15
f 13 15 16
f 17 18 19
f 17 19 20
f 21 22 23
f 21 23 24
f 25 26 27
f 25 27 28
f 29 30 31
f 29 31 32
f 33 34 35
f 33 35 36
f 37 38 39
f 37 39 40
f 41 42 43
f 41 43 44
f 45 46 47
f 45 47 48
f 49 50 51
f 49 51 52
f 53 54 55
f 53 55 56
f 57 58 59
f 57 59 60
f 61 62 63
f 61 63 64
f 65 66 67
f 65 67 68
f 69 70 71
f 69 71 72
f 73 74 75
f 73 75 76
f 77 78 79
f 77 79 80
f 81 82 83
f 81 83 84
f 85 86 87
f 85 87 88
f 89 90 91
f 89 91 92
f 93 94 95
f 93 95 96
f 97 98 99
f 97 99 100
f 101 102 103
f 101 103 104
f 105 106 107
f 105 107 108
f 109 110 111
f 109 111 112
f 113 114 115
f 113 115 116
f 117 118 119
f 117 119 120
f 121 122 123
f 121 123 124
f 125 126 127
f 125 127 128
f 129 130 131
f 129 131 132
f 133 134 135
f 133 135 136
f 137 138 139
f 137 139 140
f 141 142 143
f 141 143 144
f 145 146 147
f 145 147 148
f 149 150 151
f 149 151 152
f 153 154 155
f 153 155 156
f 157 158 159
f 157 159 160
f 161 162 163
f 161 163 164
f 165 166 167
f 165 167 168
f 169 170 171
f 169 171 172
f 173 174 175
f 173 175 176
f 177 178 179
f 177 179 180
f 181 182 183
f 181 183 184
f 185 186 187
f 185 187 188
f 189 190 191
f 189 191 192
f 193 194 195
f 193 195 196
f 197 198 199
f 197 199 200
f 201 202 203
f 201 203 204
f 205 206 207
f 205 207 208
f 209 210 211
f 209 211 212
f 213 214 215
f 213 215 216
f 217 218 219
f 217 219 220
f 221 222 223
f 221 223 224
f 225 226 227
f 225 227 228
f 229 230 231
f 229 231 232
f 233 234 235
f 233 235 236
f 237 238 239
f 237 239 240
f 241 242 243
f 241 243 244
f 245 246 247
f 245 247 248
f 249 250 251
f 249 251 252
f 253 254 255
f 253 255 256
f 257 258 259
f 257 259 260
f 261 262 263
f 261 263 264
f 265 266 267
f 265 267 268
f 269 270 271
f 269 271 272
f 273 274 275
f 273 275 276
f 277 278 279
f 277 279 280
f 281 282 283
f 281 283 284
f 285 286 287
f 285 287 288
f 289 290 291
f 289 291 292
f 293 294 295
f 293 295 296
f 297 298 299
f 297 299 300
f 301 302 303
f 301 303 304
f 305 306 307
f 305 307 308
f 309 310 311
f 309 311 312
f 313 314 315
f 313 315 316
f 317 318 319
f 317 319 320
f 321 322 323
f 321 323 324
f 325 326 327
f 325 327 328
f 329 330 331
f 329 331 332
f 333 334 335
f 333 335 336
f 337 338 339
f 337 339 340
f 341 342 343
f 341 343 344
f 345 346 347
f 345 347 348
f 349 350 351
f 349 351 352
f 353 354 355
f 353 355 356
f 357 358 359
f 357 359 360
f 361 362 363
f 361 363 364
f 365 366 367
f 365 367 368
f 369 370 371
f 369 371 372
f 373 374 375
f 373 375 376
f 377 378 379
f 377 379 380
f 381 382 383
f 381 383 384
f 385 386 387
f 385 387 388
f 389 390 391
f 389 391 392
f 393 394 395
f 393 395 396
f 397 398 399
f 397 399 400
f 401 402 403
f 401 403 404
f 405 406 407
f 405 407 408
f 409 410 411
f 409 411 412
f 413 414 415
f 413 415 416
f 417 418 419
f 417 419 420
f 421 422 423
f 421 423 424
f 425 426 427
f 425 427 428
f 429 430 431
f 429 431 432
f 433 434 435
f 433 435 436
f 437 438 439
f 437 439 440
f 441 442 443
f 441 443 444
f 445 446 447
f 445 447 448
f 449 450 451
f 449 451 452
f 453 454 455
f 453 455 456
f 457 458 459
f 457 459 460
f 461 462 463
f 461 463 464
f 465 466 467
f 465 467 468
f 469 470 471
f 469 471 472
f 473 474 475
f 473 475 476
f 477 478 479
f 477 479 480
f 481 482 483
f 481 483 484
f 485 486 487
f 485 487 488
f 489 490 491
f 489 491 492
f 493 494 495
f 493 495 496
f 497 498 499
f 497 499 500
f 501 502 503
f 501 503 504
f 505 506 507
f 505 507 508
f 509 510 511
f 509 511 512
f 513 514 515
f 513 515 516
f 517 518 519
f 517 519 520
f 521 522 523
f 521 523 524
f 525 526 527
f 525 527 528
f 529 530 531
f 529 531 532
f 533 534 535
f 533 535 536
f 537 538 539
f 537 539 540
f 541 542 543
f 541 543 544
f 545 546 547
f 545 547 548
f 549 550 551
f 549 551 552
f 553 554 555
f 553 555 556
f 557 558 559
f 557 559 560
f 561 562 563
f 561 563 564
f 565 566 567
f 565 567 568
f 569 570 571
f 569 571 572
f 573 574 575
f 573 575 576
f 577 578 579
f 577 579 580
f 581 582 583
f 581 583 584
f 585 586 587
f 585 587 588
f 589 590 591
f 589 591 592
f 593 594 595
f 593 595 596
f 597 598 599
f 597 599 600
f 601 602 603
f 601 603 604
f 605 606 607
f 605 607 608
f 609 610 611
f 609 611 612
f 613 614 615
f 613 615 616
f 617 618 619
f 617 619 620
f 621 622 623
f 621 623 624
f 625 626 627
f 625 627 628
f 629 630 631
f 629 631 632
f 633 634 635
f 633 635 636
f 637 638 639
f 637 639 640
f 641 642 643
f 641 643 644
f 645 646 647
f 645 647 648
